<svg width="143" height="146" viewBox="0 0 143 146" fill="none" xmlns="http://www.w3.org/2000/svg">
<path d="M23.8333 97.3334C10.6892 97.3334 0 86.4199 0 73.0001C0 59.5802 10.6892 48.6667 23.8333 48.6667C36.9774 48.6667 47.6667 59.5802 47.6667 73.0001C47.6667 86.4199 36.9774 97.3334 23.8333 97.3334ZM23.8333 54.7501C13.9782 54.7501 5.95833 62.9382 5.95833 73.0001C5.95833 83.0619 13.9782 91.2501 23.8333 91.2501C33.6884 91.2501 41.7083 83.0619 41.7083 73.0001C41.7083 62.9382 33.6884 54.7501 23.8333 54.7501Z" fill="#171717"/>
<path d="M55.1146 97.3334C41.9705 97.3334 31.2812 86.4199 31.2812 73.0001C31.2812 59.5802 41.9705 48.6667 55.1146 48.6667C68.2587 48.6667 78.9479 59.5802 78.9479 73.0001C78.9479 86.4199 68.2587 97.3334 55.1146 97.3334ZM55.1146 54.7501C45.2595 54.7501 37.2396 62.9382 37.2396 73.0001C37.2396 83.0619 45.2595 91.2501 55.1146 91.2501C64.9697 91.2501 72.9896 83.0619 72.9896 73.0001C72.9896 62.9382 64.9697 54.7501 55.1146 54.7501Z" fill="#171717"/>
<path d="M87.8855 97.3334C74.7414 97.3334 64.0521 86.4199 64.0521 73.0001C64.0521 59.5802 74.7414 48.6667 87.8855 48.6667C101.03 48.6667 111.719 59.5802 111.719 73.0001C111.719 86.4199 101.03 97.3334 87.8855 97.3334ZM87.8855 54.7501C78.0304 54.7501 70.0105 62.9382 70.0105 73.0001C70.0105 83.0619 78.0304 91.2501 87.8855 91.2501C97.7405 91.2501 105.76 83.0619 105.76 73.0001C105.76 62.9382 97.7405 54.7501 87.8855 54.7501Z" fill="#171717"/>
<path d="M119.167 97.3334C106.023 97.3334 95.3334 86.4199 95.3334 73.0001C95.3334 59.5802 106.023 48.6667 119.167 48.6667C132.311 48.6667 143 59.5802 143 73.0001C143 86.4199 132.311 97.3334 119.167 97.3334ZM119.167 54.7501C109.312 54.7501 101.292 62.9382 101.292 73.0001C101.292 83.0619 109.312 91.2501 119.167 91.2501C129.022 91.2501 137.042 83.0619 137.042 73.0001C137.042 62.9382 129.022 54.7501 119.167 54.7501Z" fill="#171717"/>
</svg>
