<svg width="87" height="90" viewBox="0 0 87 90" fill="none" xmlns="http://www.w3.org/2000/svg">
<g clip-path="url(#clip0_67_55)">
<path d="M43.5181 0C19.4989 0 0 20.1337 0 45.0187C0 69.8662 19.4989 90 43.5181 90C67.5374 90 87 69.8662 87 45.0187C87 20.1337 67.5374 0 43.5181 0ZM66.7725 77.3962C60.262 82.3913 52.2145 85.365 43.5181 85.365C34.8218 85.365 26.7779 82.395 20.2638 77.4C15.3761 73.6515 11.4059 68.77 8.6718 63.1471C5.93771 57.5242 4.51587 51.3166 4.52037 45.0225C4.52037 31.7437 10.7264 19.9762 20.2638 12.6038C26.9837 7.42646 35.1387 4.62975 43.5175 4.62908C51.8963 4.6284 60.0518 7.42379 66.7725 12.6C71.658 16.36 75.626 21.2497 78.3595 26.8786C81.093 32.5074 82.5164 38.7195 82.5159 45.0187C82.5159 58.2938 76.3099 70.065 66.7725 77.3962Z" fill="#171717"/>
<path d="M12.4121 34.6763C11.3618 38.0159 10.832 41.507 10.8424 45.0188C10.8424 54.2551 14.4421 62.6551 20.2638 68.7601C23.0044 71.5955 26.1916 73.9276 29.6888 75.6563L12.4121 34.6763ZM69.9517 25.1663C68.9971 23.783 67.9338 22.4836 66.7726 21.2813C64.7826 19.1785 62.5252 17.3657 60.0627 15.8926L48.7237 43.1963H38.3054L26.9664 15.8926C24.508 17.3686 22.2534 19.1813 20.2638 21.2813C19.1026 22.4836 18.0393 23.783 17.0847 25.1663L32.2553 61.2676L38.4613 46.6426H48.5751L54.7811 61.2676L69.9517 25.1663ZM74.6243 34.6763L57.3439 75.6526C60.8412 73.9238 64.0284 71.5918 66.7689 68.7563C72.8127 62.4385 76.2001 53.9073 76.1939 45.0188C76.1939 41.4151 75.6574 37.9276 74.6243 34.6763Z" fill="#171717"/>
<path d="M34.4013 77.4338C37.2723 78.3038 40.3391 78.7801 43.5182 78.7801C46.6973 78.7801 49.7604 78.3076 52.6351 77.4338L43.5182 55.9163L34.4013 77.4338ZM52.9033 12.6413C49.9526 11.6888 46.7734 11.2163 43.5182 11.2163C40.2629 11.2163 37.1201 11.6926 34.1331 12.6413L43.5182 34.7551L52.9033 12.6413Z" fill="#171717"/>
</g>
<defs>
<clipPath id="clip0_67_55">
<rect width="87" height="90" fill="white"/>
</clipPath>
</defs>
</svg>
