<svg width="45" height="45" viewBox="0 0 30 30" xmlns="http://www.w3.org/2000/svg">
<path d="M11.8083 7.11366L11.0231 5.09406L10.2379 7.11387L8.21875 7.89928L10.2379 8.68468L11.0231 10.7038L11.8083 8.68468L13.8274 7.8995L11.8083 7.11366Z" />
<path d="M7.91023 9.60274L7.26453 8.6387L6.61861 9.60296L5.65479 10.2489L6.61861 10.8946L7.26453 11.8588L7.91023 10.8944L8.87449 10.2491L7.91023 9.60274Z" />
<path d="M24.0746 13.3133L24.3449 12.8999L23.8594 12.8084C22.1394 12.4848 21.4249 11.1073 20.6685 9.64895C19.8726 8.11401 19.0498 6.52715 17.0134 6.14413L16.9175 6.12631L16.8273 6.16327C15.8204 6.57577 15.3098 7.05383 14.6458 7.73583C14.1743 8.22005 13.7524 8.81647 13.3443 9.39287C12.9509 9.94903 12.5439 10.5241 12.1085 10.9716L12.0359 11.046H9.1623L8.17869 15.226H5.8623V16.766L7.56884 17.0095L6.9623 18.526V24.906H9.6023L9.74861 23.1506L20.0158 23.1471L20.1623 24.906H22.8023V18.526L22.1958 17.0095L23.9023 16.766V15.226H22.1641C22.7554 14.8469 23.3725 14.3873 24.0746 13.3133ZM20.7101 16.3062L20.7147 16.326H20.6907C20.6969 16.3194 20.7035 16.3125 20.7101 16.3062ZM16.2379 17.1155C15.4129 16.3911 14.9842 15.3987 14.5316 14.3521C14.1446 13.4574 13.7471 12.5391 13.0792 11.7808C14.2472 12.3239 14.8473 13.4759 15.4748 14.6856C15.8534 15.4158 16.2401 16.1568 16.7587 16.7754L16.2379 17.1155ZM10.0335 12.146H12.514C13.1502 12.8341 13.5313 13.7018 13.9257 14.6141C14.1752 15.1912 14.4293 15.7784 14.7571 16.326H9.04989L10.0335 12.146ZM9.27231 20.946C8.60416 20.946 8.0623 20.4041 8.0623 19.736C8.0623 19.0678 8.60416 18.526 9.27231 18.526C9.94044 18.526 10.4823 19.0678 10.4823 19.736C10.4823 20.4041 9.94044 20.946 9.27231 20.946ZM17.7423 21.826H12.0223L11.8023 20.286H17.9623L17.7423 21.826ZM20.4923 20.946C19.8242 20.946 19.2823 20.4041 19.2823 19.736C19.2823 19.0678 19.8242 18.526 20.4923 18.526C21.1604 18.526 21.7023 19.0678 21.7023 19.736C21.7023 20.4041 21.1604 20.946 20.4923 20.946ZM21.5833 14.8121C20.8128 15.2946 20.0173 15.7933 19.0247 17.4915C17.4669 17.0935 16.7829 15.7746 16.0606 14.3818C15.3403 12.9927 14.5978 11.5608 12.9533 11.0176C13.2798 10.6269 13.5852 10.1954 13.8833 9.77435C14.2769 9.21841 14.6836 8.64355 15.119 8.19607C15.7198 7.57897 16.1394 7.17439 16.9864 6.81205C18.6386 7.16757 19.3402 8.52123 20.0824 9.95255C20.812 11.3597 21.5641 12.8104 23.2537 13.3373C22.6553 14.1405 22.1324 14.4681 21.5833 14.8121Z"/>
</svg>
