<svg width="45" height="45" viewBox="0 0 30 30" xmlns="http://www.w3.org/2000/svg">
<path d="M28.125 15.9375H26.25C26.1257 15.9375 26.0065 15.9869 25.9185 16.0748C25.8306 16.1627 25.7812 16.2819 25.7812 16.4062V17.8125H24.375V13.125C24.375 13.0007 24.3256 12.8815 24.2377 12.7935C24.1498 12.7056 24.0306 12.6562 23.9062 12.6562H22.2703L20.0672 9.57188C20.0241 9.51129 19.9671 9.46184 19.9011 9.42761C19.8351 9.39338 19.7619 9.37534 19.6875 9.375H16.4062V7.96875H17.8125C17.9368 7.96875 18.056 7.91936 18.144 7.83146C18.2319 7.74355 18.2812 7.62432 18.2812 7.5V5.625C18.2812 5.50068 18.2319 5.38145 18.144 5.29354C18.056 5.20564 17.9368 5.15625 17.8125 5.15625H12.1875C12.0632 5.15625 11.944 5.20564 11.856 5.29354C11.7681 5.38145 11.7188 5.50068 11.7188 5.625V7.5C11.7188 7.62432 11.7681 7.74355 11.856 7.83146C11.944 7.91936 12.0632 7.96875 12.1875 7.96875H13.5938V9.375H11.25C11.1756 9.37534 11.1024 9.39338 11.0364 9.42761C10.9704 9.46184 10.9134 9.51129 10.8703 9.57188L8.66719 12.6562H6.09375C5.96943 12.6562 5.8502 12.7056 5.76229 12.7935C5.67439 12.8815 5.625 13.0007 5.625 13.125V17.8125H4.21875V16.4062C4.21875 16.2819 4.16936 16.1627 4.08146 16.0748C3.99355 15.9869 3.87432 15.9375 3.75 15.9375H1.875C1.75068 15.9375 1.63145 15.9869 1.54354 16.0748C1.45564 16.1627 1.40625 16.2819 1.40625 16.4062V22.0312C1.40625 22.1556 1.45564 22.2748 1.54354 22.3627C1.63145 22.4506 1.75068 22.5 1.875 22.5H3.75C3.87432 22.5 3.99355 22.4506 4.08146 22.3627C4.16936 22.2748 4.21875 22.1556 4.21875 22.0312V20.625H5.625V22.9688C5.625 23.0931 5.67439 23.2123 5.76229 23.3002C5.8502 23.3881 5.96943 23.4375 6.09375 23.4375H11.5266L12.7922 24.7078C12.836 24.7513 12.8879 24.7856 12.945 24.809C13.0022 24.8323 13.0633 24.8441 13.125 24.8438H22.5C22.5617 24.8441 22.6228 24.8323 22.68 24.809C22.7371 24.7856 22.789 24.7513 22.8328 24.7078L24.2391 23.3016C24.2825 23.2578 24.3169 23.2058 24.3402 23.1487C24.3635 23.0916 24.3754 23.0304 24.375 22.9688V20.625H25.7812V22.0312C25.7812 22.1556 25.8306 22.2748 25.9185 22.3627C26.0065 22.4506 26.1257 22.5 26.25 22.5H28.125C28.2493 22.5 28.3685 22.4506 28.4565 22.3627C28.5444 22.2748 28.5938 22.1556 28.5938 22.0312V16.4062C28.5938 16.2819 28.5444 16.1627 28.4565 16.0748C28.3685 15.9869 28.2493 15.9375 28.125 15.9375ZM16.7672 17.6437L14.4234 20.4562C14.3794 20.5092 14.3242 20.5517 14.2618 20.5809C14.1994 20.61 14.1314 20.6251 14.0625 20.625C13.953 20.6252 13.8468 20.5871 13.7625 20.5172C13.715 20.4778 13.6758 20.4295 13.647 20.375C13.6183 20.3204 13.6006 20.2608 13.5949 20.1994C13.5892 20.138 13.5958 20.0761 13.6141 20.0172C13.6324 19.9583 13.6621 19.9036 13.7016 19.8563L15.4078 17.8125H13.5938C13.5046 17.8126 13.4173 17.7874 13.342 17.7396C13.2667 17.6919 13.2066 17.6237 13.1687 17.543C13.1308 17.4623 13.1167 17.3724 13.1281 17.284C13.1394 17.1956 13.1758 17.1123 13.2328 17.0438L15.5766 14.2313C15.616 14.1839 15.6643 14.1447 15.7188 14.116C15.7734 14.0872 15.833 14.0696 15.8944 14.0639C15.9558 14.0582 16.0177 14.0647 16.0765 14.083C16.1354 14.1012 16.1901 14.1309 16.2375 14.1703C16.2849 14.2097 16.3241 14.2581 16.3528 14.3126C16.3815 14.3671 16.3992 14.4268 16.4049 14.4882C16.4105 14.5495 16.404 14.6114 16.3858 14.6703C16.3675 14.7292 16.3378 14.7839 16.2984 14.8312L14.5922 16.875H16.4062C16.4954 16.8749 16.5827 16.9001 16.658 16.9479C16.7333 16.9956 16.7934 17.0638 16.8313 17.1445C16.8692 17.2252 16.8833 17.3151 16.8719 17.4035C16.8606 17.4919 16.8242 17.5752 16.7672 17.6437Z"/>
</svg>
