<svg width="45" height="45" viewBox="0 0 30 30" xmlns="http://www.w3.org/2000/svg">
<path d="M6.73916 5.20513C6.54146 5.2906 6.29217 5.49573 6.18042 5.64957C5.97412 5.93162 5.97412 5.97436 5.97412 7.77778C5.97412 9.5641 5.98272 9.62393 6.17183 9.89744C6.52426 10.3761 6.91108 10.5128 7.96839 10.5128C9.04289 10.5128 9.47269 10.3675 9.80793 9.90598C9.97985 9.66667 10.0228 9.48718 10.04 8.86325L10.0744 8.11966H11.785H13.4956V8.71795C13.4956 9.35043 13.5902 9.48718 14.0028 9.48718C14.1747 9.48718 14.1833 9.52991 14.1833 11.1111C14.1833 12.6239 14.1919 12.735 14.3466 12.8205C14.4412 12.8632 14.5959 12.906 14.6905 12.906C14.871 12.906 14.871 12.9231 14.871 16.8376V20.7692H14.4584C14.2349 20.7692 14.0028 20.812 13.9426 20.8718C13.8824 20.9316 13.8395 21.1624 13.8395 21.3846V21.7949H11.9569H10.0744L10.04 21.0342C10.0142 20.1624 9.8853 19.9231 9.31796 19.5983C9.0257 19.4274 8.86237 19.4017 8.03716 19.4017C6.93687 19.4017 6.51567 19.547 6.18042 20.0085C5.97412 20.2906 5.97412 20.3333 5.97412 22.1368C5.97412 23.9231 5.98272 23.9829 6.17183 24.2564C6.52426 24.735 6.91108 24.8718 7.96839 24.8718C9.04289 24.8718 9.47269 24.7265 9.80793 24.265C9.97985 24.0256 10.0228 23.8462 10.04 23.2222L10.0744 22.4786H11.9569H13.8395V22.906C13.8395 23.2308 13.8738 23.3504 14.0028 23.4188C14.2435 23.547 16.3581 23.5299 16.487 23.4017C16.5472 23.3419 16.5902 23.1111 16.5902 22.8889V22.4786H18.4727H20.3552L20.3896 23.2308C20.4326 24.1111 20.5959 24.4188 21.1632 24.7094C21.4727 24.8718 21.636 24.8889 22.5644 24.8547C23.5443 24.8291 23.6303 24.812 23.9139 24.5983C24.4641 24.1795 24.5157 23.9829 24.4813 22.0085C24.4555 20.0513 24.4297 19.9744 23.7592 19.5983C23.467 19.4274 23.3036 19.4017 22.4784 19.4017C21.3781 19.4017 20.9569 19.547 20.6217 20.0085C20.4498 20.2479 20.4068 20.4274 20.3896 21.0427L20.3552 21.7949H18.4727H16.5902V21.3846C16.5902 21.1624 16.5472 20.9316 16.487 20.8718C16.4268 20.812 16.1948 20.7692 15.9713 20.7692H15.5586V16.8376V12.906H15.7993C16.2291 12.906 16.2463 12.8291 16.2463 11.094V9.48718H16.487C16.8566 9.48718 16.934 9.34188 16.934 8.70086V8.11966H18.6446H20.3552L20.3896 8.8718C20.4498 10.1709 20.871 10.5128 22.4097 10.5128C23.4841 10.5128 23.9139 10.3675 24.2492 9.90598C24.4555 9.62393 24.4555 9.5812 24.4555 7.76068C24.4555 6.02564 24.4469 5.89744 24.275 5.67521C23.871 5.1282 23.7334 5.08547 22.4354 5.08547C21.3695 5.08547 21.2234 5.10256 21.0085 5.26496C20.5185 5.62393 20.4154 5.8547 20.3896 6.67521L20.3552 7.4359H18.6446H16.934V6.8547C16.934 6.51282 16.891 6.23077 16.8309 6.17094C16.6847 6.02564 13.7449 6.02564 13.5988 6.17094C13.5386 6.23077 13.4956 6.51282 13.4956 6.8547V7.4359H11.785H10.0744L10.04 6.67521C10.0142 5.80342 9.8853 5.5641 9.31796 5.23932C9.0257 5.06838 8.86237 5.04273 8.03716 5.04273C7.2979 5.04273 7.01424 5.08547 6.73916 5.20513Z"/>
</svg>
