<svg width="82" height="36" viewBox="0 0 82 36" fill="none" xmlns="http://www.w3.org/2000/svg">
<path d="M81.0719 1.90721C80.265 7.72622 79.4516 13.5432 78.638 19.3601C78.3779 21.2156 75.4469 21.2345 75.6713 19.3243C76.0611 16.0135 76.4523 12.7034 76.842 9.39258C57.1763 29.5152 28.4743 42.6542 0.820275 30.7309C-0.0455782 30.3576 0.286021 28.9412 1.22742 29.2736C30.1039 39.4825 58.6226 26.3451 77.7508 4.17402C77.756 4.13598 77.7604 4.09941 77.7656 4.06137C74.4315 5.16548 71.0982 6.26811 67.7445 7.31342C65.9398 7.87589 65.2982 5.10012 67.0415 4.49292C71.0797 3.08841 75.1446 1.76664 79.2047 0.430152C80.048 0.152615 81.2006 0.978636 81.0719 1.90721Z" fill="#EAB308"/>
</svg>
