<svg width="45" height="45" viewBox="0 0 30 30" xmlns="http://www.w3.org/2000/svg">
<path d="M5.46153 10.8032C5.3694 10.895 5.3387 11.7322 5.3387 13.9681C5.3387 17.3882 5.29775 17.2147 6.14736 17.2147H6.56704V13.9477V10.6807H6.0757C5.80956 10.6807 5.53318 10.7317 5.46153 10.8032Z"/>
<path d="M7.38574 13.9476V17.2147H11.5621C14.6739 17.2147 15.7692 17.184 15.8613 17.0921C16.0353 16.9186 16.0353 10.9767 15.8613 10.8031C15.7692 10.7113 14.6739 10.6806 11.5621 10.6806H7.38574V13.9476Z" />
<path d="M2.88184 12.3142V12.7225H3.70073H4.51963V12.3142V11.9058H3.70073H2.88184V12.3142Z"/>
<path d="M16.8032 13.9375V15.1728H18.3898C19.9457 15.1728 19.9867 15.183 20.2324 15.428L20.4883 15.6731V18.2765C20.4883 21.3189 20.5702 21.7068 21.3788 22.4827C22.0749 23.1566 22.6788 23.3403 24.2552 23.3403C25.1355 23.3403 25.6064 23.2995 25.6883 23.2178C25.852 23.0545 25.852 21.1759 25.6883 21.0126C25.6064 20.9309 25.1969 20.8901 24.5111 20.8901C23.4875 20.8901 23.4363 20.8799 23.2009 20.6246L22.945 20.349V17.766C22.945 15.4382 22.9245 15.1217 22.7402 14.6419C22.4741 13.9272 22.0646 13.4474 21.3993 13.0799L20.8465 12.7736L18.83 12.7429L16.8032 12.7021V13.9375Z" />
<path d="M2.88184 15.5812V15.9895H3.70073H4.51963V15.5812V15.1728H3.70073H2.88184V15.5812Z"/>
</svg>
