<svg width="29" height="29" viewBox="0 0 29 29" fill="none" xmlns="http://www.w3.org/2000/svg">
<path d="M21.7497 6.04167L18.1247 2.41667H7.24967C6.60873 2.41667 5.99405 2.67128 5.54083 3.12449C5.08762 3.5777 4.83301 4.19239 4.83301 4.83333V24.1667C4.83301 24.8076 5.08762 25.4223 5.54083 25.8755C5.99405 26.3287 6.60873 26.5833 7.24967 26.5833H21.7497C22.3906 26.5833 23.0053 26.3287 23.4585 25.8755C23.9117 25.4223 24.1663 24.8076 24.1663 24.1667" stroke-width="1.5" stroke-linecap="round" stroke-linejoin="round"/>
<path d="M9.66699 21.75H10.8753" stroke-width="1.5" stroke-linecap="round" stroke-linejoin="round"/>
<path d="M22.233 11.6C22.7137 11.1193 23.3657 10.8492 24.0455 10.8492C24.7253 10.8492 25.3773 11.1193 25.858 11.6C26.3387 12.0807 26.6088 12.7327 26.6088 13.4125C26.6088 14.0923 26.3387 14.7443 25.858 15.225L20.5413 20.5417L15.708 21.75L16.9163 16.9167L22.233 11.6Z" stroke-width="1.5" stroke-linecap="round" stroke-linejoin="round"/>
</svg>
