<svg width="71" height="71" viewBox="0 0 71 71" fill="none" xmlns="http://www.w3.org/2000/svg">
<path d="M39.6416 5.91675H17.7499C16.1807 5.91675 14.6758 6.54011 13.5662 7.6497C12.4566 8.75929 11.8333 10.2642 11.8333 11.8334V59.1667C11.8333 60.7359 12.4566 62.2409 13.5662 63.3505C14.6758 64.4601 16.1807 65.0834 17.7499 65.0834H53.2499C54.8191 65.0834 56.324 64.4601 57.4336 63.3505C58.5432 62.2409 59.1666 60.7359 59.1666 59.1667V37.2751" stroke="#EAB308" stroke-width="2.5" stroke-linecap="round" stroke-linejoin="round"/>
<path d="M5.91675 17.75H17.7501" stroke="#EAB308" stroke-width="2.5" stroke-linecap="round" stroke-linejoin="round"/>
<path d="M5.91675 29.5833H17.7501" stroke="#EAB308" stroke-width="2.5" stroke-linecap="round" stroke-linejoin="round"/>
<path d="M5.91675 41.4167H17.7501" stroke="#EAB308" stroke-width="2.5" stroke-linecap="round" stroke-linejoin="round"/>
<path d="M5.91675 53.25H17.7501" stroke="#EAB308" stroke-width="2.5" stroke-linecap="round" stroke-linejoin="round"/>
<path d="M54.4333 7.69177C55.6665 6.89581 57.1352 6.54644 58.5946 6.70189C60.0541 6.85733 61.4162 7.5082 62.4541 8.54603C63.4919 9.58387 64.1428 10.946 64.2982 12.4055C64.4537 13.865 64.1043 15.3336 63.3083 16.5668L47.3333 32.5418L35.5 35.5001L38.4583 23.6668L54.4333 7.69177Z" stroke="#EAB308" stroke-width="2.5" stroke-linecap="round" stroke-linejoin="round"/>
</svg>
