<svg width="78" height="78" viewBox="0 0 78 78" fill="none" xmlns="http://www.w3.org/2000/svg">
<path d="M36.0951 48.8709L51.7758 64.5516C53.1206 65.8535 54.9233 66.5746 56.7949 66.5594C58.6666 66.5442 60.4573 65.7939 61.7808 64.4704C63.1043 63.1469 63.8545 61.3562 63.8697 59.4846C63.8849 57.6129 63.1638 55.8103 61.862 54.4654L46.0549 38.6583M36.0951 48.8709L42.8085 40.7213C43.6611 39.6885 44.7988 39.0376 46.0576 38.661C47.5369 38.2199 49.1857 38.1554 50.7457 38.2845C52.8485 38.465 54.962 38.0926 56.8765 37.2041C58.7909 36.3156 60.4397 34.9419 61.6593 33.2193C62.8789 31.4968 63.6269 29.4853 63.829 27.3844C64.0311 25.2835 63.6803 23.1663 62.8115 21.2428L54.0001 30.0568C52.526 29.7159 51.1771 28.9679 50.1072 27.898C49.0373 26.8281 48.2893 25.4793 47.9484 24.0051L56.7597 15.1938C54.8363 14.3249 52.7191 13.9741 50.6182 14.1762C48.5173 14.3783 46.5058 15.1263 44.7832 16.3459C43.0607 17.5655 41.687 19.2143 40.7985 21.1288C39.91 23.0432 39.5375 25.1567 39.7181 27.2596C39.9628 30.1536 39.5271 33.3489 37.2866 35.1941L37.0123 35.4227M36.0951 48.8709L23.5748 64.0756C22.968 64.8152 22.213 65.4197 21.3585 65.8499C20.504 66.2802 19.5688 66.5268 18.6132 66.5738C17.6577 66.6209 16.7028 66.4673 15.8102 66.123C14.9175 65.7787 14.1069 65.2514 13.4304 64.5749C12.7539 63.8983 12.2265 63.0877 11.8822 62.195C11.5379 61.3024 11.3843 60.3476 11.4314 59.392C11.4784 58.4364 11.725 57.5013 12.1553 56.6468C12.5856 55.7922 13.19 55.0373 13.9297 54.4305L32.3188 39.2877L21.2724 28.2413H17.4827L11.431 18.1551L15.4655 14.1206L25.5517 20.1723V23.9621L37.0096 35.42L32.3161 39.285M54.8017 57.4913L47.7413 50.4309M18.4698 59.5085H18.4913V59.5301H18.4698V59.5085Z" stroke="#EAB308" stroke-width="2" stroke-linecap="round" stroke-linejoin="round"/>
</svg>
