<svg width="131" height="56" viewBox="0 0 131 56" fill="none" xmlns="http://www.w3.org/2000/svg">
<g clip-path="url(#clip0_27_32)">
<mask id="mask0_27_32" style="mask-type:luminance" maskUnits="userSpaceOnUse" x="0" y="0" width="131" height="56">
<path d="M131 0H0V55.3412H131V0Z" fill="white"/>
</mask>
<g mask="url(#mask0_27_32)">
<path d="M47.553 11.6164L45.719 8.61444L61.963 14.0964L47.553 11.6164Z" fill="#171717"/>
<path d="M49.911 18.4036L48.863 14.8795L68.12 18.4036H49.911Z" fill="#171717"/>
<path d="M47.16 45.8131L44.54 49.7288L70.74 45.8131H47.16Z" fill="#171717"/>
<path d="M39.3184 28.2984C39.3184 41.5355 45.9648 54.9169 33.7613 55.3101C32.5406 55.3494 30.8031 55.9379 21.5214 54.6513C12.2398 53.3647 5.12744 42.8596 5.12744 28.2984C5.12744 13.7372 12.1694 4.28238 21.5024 4.28238C52.6804 1.67194 39.3184 13.7372 39.3184 28.2984Z" fill="#171717"/>
<path d="M51.3519 28.4537C51.3519 43.3032 43.9032 55.3412 34.7149 55.3412C32.1337 55.3412 30.214 54.2957 28.0339 52.6002C22.4535 48.2604 18.0779 39.1317 18.0779 28.4537C18.0779 17.2002 22.9525 6.57115 29.3439 3.78514C31.4399 2.87149 33.9307 2.87149 36.1559 2.87149C45.3442 2.87149 51.3519 13.6042 51.3519 28.4537Z" fill="white"/>
<path d="M34.4529 52.7307C42.4836 52.7307 48.9939 41.8616 48.9939 28.4537C48.9939 15.0459 42.4836 4.1767 34.4529 4.1767C26.4221 4.1767 19.9119 15.0459 19.9119 28.4537C19.9119 41.8616 26.4221 52.7307 34.4529 52.7307Z" fill="#171717"/>
<path d="M36.156 45.9436C41.944 45.9436 46.636 38.0547 46.636 28.3232C46.636 18.5917 41.944 10.7028 36.156 10.7028C30.3681 10.7028 25.676 18.5917 25.676 28.3232C25.676 38.0547 30.3681 45.9436 36.156 45.9436Z" fill="white"/>
<path d="M35.8938 43.0721C40.8136 43.0721 44.8018 36.5273 44.8018 28.4537C44.8018 20.3802 40.8136 13.8353 35.8938 13.8353C30.9741 13.8353 26.9858 20.3802 26.9858 28.4537C26.9858 36.5273 30.9741 43.0721 35.8938 43.0721Z" fill="#EAB308"/>
<path d="M33.7978 42.5501C37.56 42.5501 40.6098 36.2389 40.6098 28.4537C40.6098 20.6685 37.56 14.3574 33.7978 14.3574C30.0357 14.3574 26.9858 20.6685 26.9858 28.4537C26.9858 36.2389 30.0357 42.5501 33.7978 42.5501Z" fill="white"/>
<path d="M49.6212 19.7647H27.7878V36.8941H49.6212V19.7647Z" fill="white"/>
<path d="M36.3341 36.0135C35.1742 36.0135 34.1053 35.8326 33.1272 35.4706C32.1631 35.0947 31.3176 34.5655 30.5911 33.8834C29.8784 33.2013 29.3196 32.4007 28.9143 31.4818C28.5231 30.563 28.3274 29.5535 28.3274 28.4537C28.3274 27.354 28.5231 26.3445 28.9143 25.4256C29.3196 24.5068 29.8855 23.7062 30.612 23.024C31.3386 22.3418 32.1911 21.8198 33.1692 21.4578C34.1472 21.0819 35.2232 20.8939 36.397 20.8939C37.6965 20.8939 38.8632 21.1097 39.8973 21.5413C40.9453 21.9729 41.8256 22.5994 42.5383 23.4208L40.3584 25.4256C39.8274 24.8687 39.2476 24.458 38.6187 24.1935C37.99 23.9151 37.3053 23.7758 36.5647 23.7758C35.852 23.7758 35.2023 23.8872 34.6154 24.11C34.0285 24.3327 33.5184 24.6529 33.0853 25.0706C32.6661 25.4883 32.3378 25.9825 32.1002 26.5533C31.8767 27.1242 31.7648 27.7575 31.7648 28.4537C31.7648 29.1358 31.8767 29.7623 32.1002 30.3332C32.3378 30.9041 32.6661 31.4053 33.0853 31.8369C33.5184 32.2545 34.0214 32.5748 34.5944 32.7975C35.1813 33.0202 35.824 33.1316 36.5227 33.1316C37.1935 33.1316 37.8432 33.0272 38.472 32.8184C39.1147 32.5957 39.7367 32.2266 40.3375 31.7116L42.2658 34.1549C41.4693 34.7535 40.54 35.2129 39.4781 35.5332C38.4301 35.8535 37.3821 36.0135 36.3341 36.0135ZM39.1637 33.7164V28.224H42.2658V34.1549L39.1637 33.7164ZM48.5431 27.0337H55.6066V29.665H48.5431V27.0337ZM48.7946 33.0481H56.7803V35.7629H45.42V21.1445H56.5078V23.8594H48.7946V33.0481ZM57.5538 35.7629L64.0933 21.1445H67.4469L74.0074 35.7629H70.4442L65.0784 22.857H66.4198L61.0331 35.7629H57.5538ZM60.8235 32.6304L61.7248 30.0618H69.2704L70.1926 32.6304H60.8235ZM75.5296 35.7629V21.1445H81.8805C83.1939 21.1445 84.3257 21.3603 85.276 21.7919C86.226 22.2096 86.9596 22.8152 87.4768 23.6088C87.9937 24.4023 88.2523 25.3491 88.2523 26.4489C88.2523 27.5349 87.9937 28.4746 87.4768 29.2682C86.9596 30.0479 86.226 30.6465 85.276 31.0642C84.3257 31.4818 83.1939 31.6907 81.8805 31.6907H77.416L78.9251 30.2079V35.7629H75.5296ZM84.8568 35.7629L81.1888 30.4585H84.8149L88.5248 35.7629H84.8568ZM78.9251 30.5838L77.416 28.9967H81.6918C82.7398 28.9967 83.5221 28.774 84.0393 28.3284C84.5563 27.869 84.8149 27.2425 84.8149 26.4489C84.8149 25.6414 84.5563 25.0149 84.0393 24.5694C83.5221 24.1239 82.7398 23.9011 81.6918 23.9011H77.416L78.9251 22.2931V30.5838ZM103.397 36.0135C101.315 36.0135 99.687 35.4359 98.5133 34.2802C97.3395 33.1246 96.7526 31.4748 96.7526 29.3308V21.1445H100.148V29.2055C100.148 30.5977 100.435 31.6001 101.007 32.2128C101.58 32.8254 102.384 33.1316 103.418 33.1316C104.452 33.1316 105.255 32.8254 105.828 32.2128C106.401 31.6001 106.688 30.5977 106.688 29.2055V21.1445H110.041V29.3308C110.041 31.4748 109.454 33.1246 108.281 34.2802C107.107 35.4359 105.479 36.0135 103.397 36.0135ZM113.397 35.7629V21.1445H119.748C121.061 21.1445 122.193 21.3603 123.143 21.7919C124.093 22.2096 124.827 22.8152 125.344 23.6088C125.861 24.4023 126.119 25.3491 126.119 26.4489C126.119 27.5349 125.861 28.4746 125.344 29.2682C124.827 30.0618 124.093 30.6744 123.143 31.1059C122.193 31.5236 121.061 31.7324 119.748 31.7324H115.283L116.792 30.2079V35.7629H113.397ZM116.792 30.5838L115.283 28.9758H119.559C120.607 28.9758 121.39 28.7532 121.906 28.3076C122.423 27.8619 122.682 27.2425 122.682 26.4489C122.682 25.6414 122.423 25.0149 121.906 24.5694C121.39 24.1239 120.607 23.9011 119.559 23.9011H115.283L116.792 22.2931V30.5838Z" fill="#171717"/>
<path d="M50.5701 44.2166C50.1006 44.2166 49.6507 44.1552 49.2203 44.0328C48.7898 43.9046 48.4435 43.7404 48.1807 43.54L48.6418 42.5208C48.8933 42.6991 49.1896 42.8466 49.5305 42.9636C49.8771 43.075 50.2264 43.1306 50.5785 43.1306C50.8468 43.1306 51.0619 43.1056 51.2241 43.0555C51.3917 42.9999 51.5146 42.9247 51.593 42.8299C51.6713 42.7352 51.7103 42.6266 51.7103 42.5041C51.7103 42.3483 51.6488 42.2256 51.5259 42.1366C51.403 42.0418 51.2408 41.9667 51.0396 41.911C50.8384 41.8497 50.6149 41.7941 50.3689 41.744C50.1286 41.6884 49.8855 41.6215 49.6395 41.5435C49.3992 41.4654 49.1784 41.3652 48.9771 41.2428C48.7759 41.1203 48.6111 40.9588 48.4825 40.7583C48.3596 40.5578 48.298 40.3017 48.298 39.9898C48.298 39.6556 48.3874 39.352 48.5663 39.0792C48.7508 38.8007 49.0246 38.5809 49.388 38.4193C49.7569 38.2523 50.218 38.1687 50.7713 38.1687C51.1402 38.1687 51.5036 38.2134 51.8612 38.3024C52.2189 38.3859 52.5348 38.5141 52.8086 38.6866L52.3894 39.7141C52.1156 39.5583 51.8416 39.4439 51.5678 39.3716C51.294 39.2936 51.0257 39.2547 50.7629 39.2547C50.5002 39.2547 50.285 39.2852 50.1174 39.3466C49.9497 39.4079 49.8294 39.4886 49.7569 39.5888C49.6843 39.6836 49.6479 39.7948 49.6479 39.9229C49.6479 40.0733 49.7094 40.1957 49.8323 40.2905C49.9552 40.3795 50.1174 40.4521 50.3186 40.5077C50.5198 40.5633 50.7407 40.6191 50.9809 40.6747C51.2269 40.7303 51.4701 40.7946 51.7103 40.8669C51.9563 40.9392 52.1798 41.0368 52.381 41.1592C52.5823 41.2817 52.7444 41.4433 52.8673 41.6437C52.996 41.8442 53.0602 42.0977 53.0602 42.4039C53.0602 42.7326 52.9679 43.0333 52.7835 43.3061C52.599 43.5789 52.3224 43.7989 51.9535 43.966C51.5901 44.133 51.129 44.2166 50.5701 44.2166ZM55.4554 40.6246H58.2808V41.6772H55.4554V40.6246ZM55.556 43.0304H58.7503V44.1163H54.2061V38.269H58.6413V39.3549H55.556V43.0304ZM60.049 44.1163V38.269H62.5894C63.1147 38.269 63.5674 38.3554 63.9476 38.5279C64.3277 38.695 64.6212 38.9372 64.8279 39.2547C65.0346 39.5721 65.1381 39.9509 65.1381 40.3907C65.1381 40.8251 65.0346 41.201 64.8279 41.5184C64.6212 41.8304 64.3277 42.0698 63.9476 42.2368C63.5674 42.4039 63.1147 42.4874 62.5894 42.4874H60.8036L61.4072 41.8943V44.1163H60.049ZM63.7799 44.1163L62.3127 41.9946H63.7631L65.2471 44.1163H63.7799ZM61.4072 42.0447L60.8036 41.4098H62.5139C62.9331 41.4098 63.2462 41.3208 63.4529 41.1425C63.6596 40.9588 63.7631 40.7082 63.7631 40.3907C63.7631 40.0678 63.6596 39.8172 63.4529 39.6389C63.2462 39.4606 62.9331 39.3716 62.5139 39.3716H60.8036L61.4072 38.7284V42.0447ZM68.1928 44.1163L65.6608 38.269H67.128L69.3414 43.4481H68.4778L70.7247 38.269H72.0745L69.5342 44.1163H68.1928ZM72.7827 44.1163V38.269H74.1409V44.1163H72.7827ZM78.5601 44.2166C78.1073 44.2166 77.6855 44.1443 77.2941 43.9994C76.9084 43.849 76.5731 43.6373 76.288 43.3645C76.003 43.0917 75.7795 42.7714 75.6173 42.4039C75.4609 42.0363 75.3826 41.6325 75.3826 41.1927C75.3826 40.7528 75.4609 40.349 75.6173 39.9814C75.7795 39.6139 76.003 39.2936 76.288 39.0208C76.5788 38.748 76.9168 38.5392 77.3025 38.3943C77.6882 38.2439 78.1102 38.1687 78.5685 38.1687C79.0773 38.1687 79.5355 38.2577 79.9434 38.436C80.3571 38.6086 80.7038 38.8649 80.9831 39.2046L80.1111 40.0065C79.9099 39.7781 79.6864 39.6084 79.4404 39.4969C79.1947 39.38 78.9264 39.3215 78.6355 39.3215C78.3618 39.3215 78.1102 39.3661 77.881 39.4552C77.652 39.5442 77.4534 39.6723 77.2857 39.8394C77.118 40.0065 76.9868 40.2041 76.8917 40.4325C76.8023 40.6609 76.7575 40.9141 76.7575 41.1927C76.7575 41.4712 76.8023 41.7244 76.8917 41.9528C76.9868 42.1812 77.118 42.3788 77.2857 42.5459C77.4534 42.713 77.652 42.8411 77.881 42.9302C78.1102 43.0192 78.3618 43.0638 78.6355 43.0638C78.9264 43.0638 79.1947 43.0082 79.4404 42.8967C79.6864 42.7798 79.9099 42.6044 80.1111 42.3705L80.9831 43.1724C80.7038 43.512 80.3571 43.771 79.9434 43.9493C79.5355 44.1276 79.0744 44.2166 78.5601 44.2166ZM83.3675 40.6246H86.1929V41.6772H83.3675V40.6246ZM83.4681 43.0304H86.6624V44.1163H82.1183V38.269H86.5534V39.3549H83.4681V43.0304ZM93.3623 44.2166C92.9096 44.2166 92.4875 44.1443 92.0963 43.9994C91.7107 43.849 91.3753 43.6373 91.0902 43.3645C90.8052 43.0917 90.5814 42.7714 90.4195 42.4039C90.2628 42.0363 90.1848 41.6325 90.1848 41.1927C90.1848 40.7528 90.2628 40.349 90.4195 39.9814C90.5814 39.6139 90.8052 39.2936 91.0902 39.0208C91.3808 38.748 91.719 38.5392 92.1047 38.3943C92.4904 38.2439 92.9122 38.1687 93.3707 38.1687C93.8792 38.1687 94.3375 38.2577 94.7457 38.436C95.1591 38.6086 95.5057 38.8649 95.7853 39.2046L94.9133 40.0065C94.7121 39.7781 94.4884 39.6084 94.2426 39.4969C93.9966 39.38 93.7283 39.3215 93.4378 39.3215C93.1637 39.3215 92.9122 39.3661 92.6832 39.4552C92.4539 39.5442 92.2556 39.6723 92.0879 39.8394C91.9202 40.0065 91.7887 40.2041 91.6939 40.4325C91.6043 40.6609 91.5597 40.9141 91.5597 41.1927C91.5597 41.4712 91.6043 41.7244 91.6939 41.9528C91.7887 42.1812 91.9202 42.3788 92.0879 42.5459C92.2556 42.713 92.4539 42.8411 92.6832 42.9302C92.9122 43.0192 93.1637 43.0638 93.4378 43.0638C93.7283 43.0638 93.9966 43.0082 94.2426 42.8967C94.4884 42.7798 94.7121 42.6044 94.9133 42.3705L95.7853 43.1724C95.5057 43.512 95.1591 43.771 94.7457 43.9493C94.3375 44.1276 93.8763 44.2166 93.3623 44.2166ZM98.1695 40.6246H100.995V41.6772H98.1695V40.6246ZM98.2701 43.0304H101.464V44.1163H96.9203V38.269H101.355V39.3549H98.2701V43.0304ZM102.763 44.1163V38.269H103.887L107.349 42.4791H106.804V38.269H108.146V44.1163H107.031L103.56 39.9062H104.105V44.1163H102.763ZM110.968 44.1163V39.3716H109.09V38.269H114.204V39.3716H112.326V44.1163H110.968ZM116.402 40.6246H119.227V41.6772H116.402V40.6246ZM116.503 43.0304H119.697V44.1163H115.153V38.269H119.588V39.3549H116.503V43.0304ZM120.996 44.1163V38.269H123.536C124.061 38.269 124.514 38.3554 124.894 38.5279C125.274 38.695 125.568 38.9372 125.775 39.2547C125.981 39.5721 126.085 39.9509 126.085 40.3907C126.085 40.8251 125.981 41.201 125.775 41.5184C125.568 41.8304 125.274 42.0698 124.894 42.2368C124.514 42.4039 124.061 42.4874 123.536 42.4874H121.75L122.354 41.8943V44.1163H120.996ZM124.727 44.1163L123.259 41.9946H124.71L126.194 44.1163H124.727ZM122.354 42.0447L121.75 41.4098H123.461C123.88 41.4098 124.193 41.3208 124.4 41.1425C124.606 40.9588 124.71 40.7082 124.71 40.3907C124.71 40.0678 124.606 39.8172 124.4 39.6389C124.193 39.4606 123.88 39.3716 123.461 39.3716H121.75L122.354 38.7284V42.0447Z" fill="#EAB308"/>
<path d="M23.1872 6.004C19.4319 10.2677 13.1 23.52 17.816 41.3754C16.506 39.7222 13.8074 35.1364 14.017 30.02C13.493 30.02 12.838 32.7609 12.838 38.5039C12.838 39.5481 10.9778 34.8493 11.921 24.4075C11.5717 24.7556 11.0244 27.0564 10.087 33.283C9.89048 34.5882 8.90798 27.279 9.69398 20.8835C9.12631 22.2322 7.99098 25.8955 7.46698 29.7589C7.14834 32.1083 6.02603 9.78913 18.995 6.004H23.1872Z" fill="#818181"/>
<path d="M10.087 33.283C11.0244 27.0564 11.5717 24.7556 11.921 24.4075C10.9778 34.8493 12.838 39.5481 12.838 38.5039C12.838 32.7609 13.493 30.02 14.017 30.02C13.8074 35.1364 16.506 39.7222 17.816 41.3754C13.1 23.52 19.4319 10.2677 23.1872 6.004H18.995C6.02603 9.78913 7.14834 32.1083 7.46698 29.7589C7.99098 25.8955 9.12631 22.2322 9.69398 20.8835M10.087 33.283C9.89048 34.5882 8.90798 27.279 9.69398 20.8835M10.087 33.283L9.69398 20.8835" stroke="#818181"/>
</g>
</g>
<defs>
<clipPath id="clip0_27_32">
<rect width="131" height="56" fill="white"/>
</clipPath>
</defs>
</svg>
