<svg width="88" height="90" viewBox="0 0 88 90" fill="none" xmlns="http://www.w3.org/2000/svg">
<path fill-rule="evenodd" clip-rule="evenodd" d="M44.8594 0.878906C68.0625 0.878906 86.7969 20.0391 86.7969 43.7695C86.7969 67.5 68.0625 86.6602 44.8594 86.6602C21.6562 86.6602 2.92188 67.5 2.92188 43.7695C2.92188 20.0391 21.6562 0.878906 44.8594 0.878906ZM45.5469 4.92188L51.0469 38.4961L78.2031 62.4023C81.2969 56.7773 83.0156 50.4492 83.0156 43.5938C83.0156 22.3242 66.3438 5.09766 45.7188 4.74609L45.5469 4.92188ZM77.8594 62.9297L44.6875 50.9766L12.2031 63.457C18.9062 74.8828 30.9375 82.4414 44.8594 82.4414C58.9531 82.4414 71.3281 74.5312 77.8594 62.7539V62.9297ZM11.8594 62.9297L38.8438 39.375L44.1719 4.92188C23.5469 5.27344 6.875 22.5 6.875 43.7695C6.875 50.8008 8.76562 57.3047 11.8594 63.1055V62.9297Z" fill="#171717"/>
</svg>
