<svg width="128" height="130" viewBox="0 0 128 130" fill="none" xmlns="http://www.w3.org/2000/svg">
<path fill-rule="evenodd" clip-rule="evenodd" d="M24.9458 63.3928V64.9582C24.9458 87.0484 42.4333 105.1 63.9304 105.1C81.8189 105.1 96.899 92.7365 101.472 75.9217L38.9029 76.6636L53.9842 64.7113L24.9458 63.3928ZM26.3904 54.2436C30.9625 37.2635 46.0432 24.8992 63.9311 24.8992C85.4295 24.8992 102.916 42.8687 102.916 64.9582V66.937L73.8779 65.6185L89.3596 53.5017L26.3904 54.2436ZM19.8926 63.1453L6.25586 62.5687V54.4081L21.0957 54.2436C25.8286 34.4612 43.2354 19.7068 63.9311 19.7068C88.2366 19.7068 107.969 39.9835 107.969 64.9582C107.969 65.7014 107.969 66.3597 107.89 67.1015L121.606 67.6782V75.7571L106.767 75.9217C101.953 95.621 84.6274 110.294 63.9311 110.294C39.5454 110.294 19.8126 90.0166 19.8126 64.9582C19.8126 64.3816 19.8126 63.8049 19.8926 63.1453Z" fill="#171717"/>
</svg>
