<svg width="24" height="24" viewBox="0 0 24 24" fill="none" xmlns="http://www.w3.org/2000/svg">
<path d="M21.9452 2.76454C21.5059 2.40022 20.9021 2.30647 20.373 2.52039L2.45598 9.75379C1.66783 10.0782 1.29192 10.9801 1.61632 11.7682C1.78411 12.1758 2.11809 12.4921 2.53411 12.6376L6.39934 13.9813L8.49407 20.9071C8.49828 20.9212 8.51122 20.9298 8.51665 20.9434C8.53832 20.9986 8.56999 21.0494 8.60997 21.0933C8.62487 21.1109 8.6411 21.1275 8.65843 21.1427C8.71062 21.186 8.77123 21.2181 8.83641 21.2368C8.84636 21.2397 8.85301 21.2485 8.86315 21.2509L8.86901 21.2506L8.87194 21.2518C8.90532 21.2593 8.93938 21.2629 8.9735 21.2626C9.01812 21.261 9.06237 21.2533 9.10485 21.2397C9.11309 21.2374 9.12139 21.238 9.12944 21.2354C9.20201 21.2098 9.26757 21.1677 9.32097 21.1124C9.3272 21.1062 9.33666 21.1051 9.34264 21.0985L12.3563 17.7733L16.7528 21.1776C17.0199 21.3865 17.3493 21.4999 17.6883 21.4999C18.4217 21.4998 19.0548 20.986 19.2059 20.2684L22.4687 4.25086C22.5817 3.69679 22.3805 3.1255 21.9452 2.76454ZM9.58782 15.2948L8.8806 18.7316L7.40575 13.8538L14.7206 10.0447L9.72356 15.0419C9.65447 15.111 9.60729 15.199 9.58782 15.2948ZM18.2265 20.0673C18.1882 20.2514 18.0568 20.4023 17.8798 20.4657C17.7068 20.5322 17.5115 20.5026 17.3661 20.3876L12.6025 16.6991C12.3962 16.5394 12.1019 16.5654 11.9267 16.7587L9.83104 19.0709L10.537 15.6434L17.7255 8.45399C17.9209 8.25898 17.9212 7.94257 17.7262 7.74726C17.5719 7.59266 17.3352 7.55616 17.1415 7.65711L6.77819 13.0538L2.86125 11.6923C2.64775 11.622 2.50255 11.4238 2.49993 11.1991C2.48961 10.9728 2.62358 10.7647 2.83391 10.6806L20.748 3.44813C20.9351 3.36872 21.1511 3.40199 21.3056 3.53407C21.4594 3.65821 21.5301 3.85847 21.4882 4.05164L18.2265 20.0673Z" fill="#EAB308" stroke="#EAB308" stroke-width="0.5"/>
</svg>
