<svg width="106" height="110" viewBox="0 0 106 110" fill="none" xmlns="http://www.w3.org/2000/svg">
<path d="M53 89.375C23.7749 89.375 0 73.9567 0 55C0 36.0433 23.7749 20.625 53 20.625C82.2251 20.625 106 36.0433 106 55C106 73.9567 82.2251 89.375 53 89.375ZM53 25.2083C26.2129 25.2083 4.41667 38.5733 4.41667 55C4.41667 71.4267 26.2129 84.7917 53 84.7917C79.7871 84.7917 101.583 71.4267 101.583 55C101.583 38.5733 79.7871 25.2083 53 25.2083Z" fill="#171717"/>
<path d="M53.0001 52.7083C32.8557 52.7083 17.6667 45.8104 17.6667 36.6667C17.6667 27.5229 32.8557 20.625 53.0001 20.625C73.1445 20.625 88.3334 27.5229 88.3334 36.6667C88.3334 45.8104 73.1445 52.7083 53.0001 52.7083ZM53.0001 25.2083C34.7813 25.2083 22.0834 31.2446 22.0834 36.6667C22.0834 42.0887 34.7813 48.125 53.0001 48.125C71.2188 48.125 83.9168 42.0887 83.9168 36.6667C83.9168 31.2446 71.2188 25.2083 53.0001 25.2083Z" fill="#171717"/>
<path d="M53.0001 89.375C44.1888 89.375 37.5417 74.5983 37.5417 55C37.5417 35.4017 44.1888 20.625 53.0001 20.625C61.8113 20.625 68.4584 35.4017 68.4584 55C68.4584 74.5983 61.8113 89.375 53.0001 89.375ZM53.0001 25.2083C47.7752 25.2083 41.9584 37.4412 41.9584 55C41.9584 72.5588 47.7752 84.7917 53.0001 84.7917C58.225 84.7917 64.0417 72.5588 64.0417 55C64.0417 37.4412 58.225 25.2083 53.0001 25.2083Z" fill="#171717"/>
</svg>
