<svg width="131" height="56" viewBox="0 0 131 56" fill="none" xmlns="http://www.w3.org/2000/svg">
<mask id="mask0_108_106" style="mask-type:luminance" maskUnits="userSpaceOnUse" x="0" y="0" width="131" height="56">
<path d="M131 0H0V55.3412H131V0Z" fill="white"/>
</mask>
<g mask="url(#mask0_108_106)">
<path d="M47.553 11.6163L45.719 8.61426L61.963 14.0962L47.553 11.6163Z" fill="#989898"/>
<path d="M49.911 18.403L48.863 14.8789L68.12 18.403H49.911Z" fill="#989898"/>
<path d="M47.16 45.8125L44.54 49.7281L70.74 45.8125H47.16Z" fill="#989898"/>
<path d="M39.3186 28.2981C39.3186 41.5352 45.9649 54.9167 33.7615 55.3099C32.5407 55.3492 30.8032 55.9376 21.5216 54.651C12.2399 53.3645 5.12756 42.8594 5.12756 28.2981C5.12756 13.7369 12.1695 4.28213 21.5026 4.28213C52.6806 1.6717 39.3186 13.7369 39.3186 28.2981Z" fill="#989898"/>
<path d="M51.352 28.4533C51.352 43.3028 43.9033 55.3408 34.715 55.3408C32.1338 55.3408 30.2141 54.2953 28.034 52.5998C22.4536 48.26 18.078 39.1313 18.078 28.4533C18.078 17.1998 22.9526 6.57076 29.344 3.78475C31.44 2.87109 33.9308 2.87109 36.156 2.87109C45.3443 2.87109 51.352 13.6038 51.352 28.4533Z" fill="#404040"/>
<path d="M34.453 52.7308C42.4838 52.7308 48.994 41.8616 48.994 28.4538C48.994 15.046 42.4838 4.17676 34.453 4.17676C26.4222 4.17676 19.912 15.046 19.912 28.4538C19.912 41.8616 26.4222 52.7308 34.453 52.7308Z" fill="#989898"/>
<path d="M36.156 45.943C41.944 45.943 46.636 38.0541 46.636 28.3226C46.636 18.5911 41.944 10.7021 36.156 10.7021C30.3681 10.7021 25.676 18.5911 25.676 28.3226C25.676 38.0541 30.3681 45.943 36.156 45.943Z" fill="#404040"/>
<path d="M35.8941 43.0718C40.8138 43.0718 44.8021 36.5269 44.8021 28.4534C44.8021 20.3799 40.8138 13.835 35.8941 13.835C30.9743 13.835 26.9861 20.3799 26.9861 28.4534C26.9861 36.5269 30.9743 43.0718 35.8941 43.0718Z" fill="#EAB308"/>
<path d="M33.7981 42.5501C37.5602 42.5501 40.6101 36.239 40.6101 28.4538C40.6101 20.6686 37.5602 14.3574 33.7981 14.3574C30.0359 14.3574 26.9861 20.6686 26.9861 28.4538C26.9861 36.239 30.0359 42.5501 33.7981 42.5501Z" fill="#404040"/>
<path d="M49.6213 19.7646H27.788V36.8941H49.6213V19.7646Z" fill="#404040"/>
<path d="M36.3342 36.0132C35.1744 36.0132 34.1054 35.8323 33.1274 35.4702C32.1632 35.0943 31.3177 34.5652 30.5912 33.8831C29.8786 33.201 29.3197 32.4003 28.9144 31.4815C28.5232 30.5626 28.3275 29.5531 28.3275 28.4534C28.3275 27.3536 28.5232 26.3441 28.9144 25.4253C29.3197 24.5064 29.8856 23.7059 30.6122 23.0237C31.3387 22.3415 32.1912 21.8194 33.1693 21.4574C34.1473 21.0815 35.2234 20.8936 36.3971 20.8936C37.6966 20.8936 38.8633 21.1094 39.8974 21.5409C40.9454 21.9725 41.8258 22.599 42.5384 23.4205L40.3586 25.4253C39.8275 24.8684 39.2477 24.4577 38.6189 24.1931C37.9901 23.9147 37.3055 23.7755 36.5648 23.7755C35.8522 23.7755 35.2024 23.8869 34.6155 24.1096C34.0286 24.3324 33.5185 24.6526 33.0854 25.0702C32.6662 25.4879 32.3379 25.9821 32.1003 26.553C31.8768 27.1239 31.765 27.7572 31.765 28.4534C31.765 29.1355 31.8768 29.762 32.1003 30.3329C32.3379 30.9038 32.6662 31.405 33.0854 31.8365C33.5185 32.2542 34.0216 32.5745 34.5946 32.7971C35.1814 33.0198 35.8241 33.1313 36.5229 33.1313C37.1936 33.1313 37.8434 33.0268 38.4722 32.818C39.1148 32.5953 39.7368 32.2262 40.3376 31.7112L42.2659 34.1546C41.4694 34.7531 40.5401 35.2126 39.4782 35.5329C38.4302 35.8532 37.3822 36.0132 36.3342 36.0132ZM39.1638 33.716V28.2237H42.2659V34.1546L39.1638 33.716ZM48.5432 27.0333H55.6067V29.6646H48.5432V27.0333ZM48.7947 33.0477H56.7804V35.7626H45.4201V21.1442H56.508V23.859H48.7947V33.0477ZM57.5539 35.7626L64.0934 21.1442H67.447L74.0075 35.7626H70.4443L65.0785 22.8566H66.42L61.0332 35.7626H57.5539ZM60.8236 32.6301L61.7249 30.0614H69.2705L70.1928 32.6301H60.8236ZM75.5297 35.7626V21.1442H81.8806C83.194 21.1442 84.3258 21.36 85.2761 21.7915C86.2261 22.2092 86.9597 22.8148 87.4769 23.6084C87.9938 24.402 88.2524 25.3487 88.2524 26.4486C88.2524 27.5345 87.9938 28.4743 87.4769 29.2678C86.9597 30.0476 86.2261 30.6461 85.2761 31.0638C84.3258 31.4815 83.194 31.6903 81.8806 31.6903H77.4161L78.9252 30.2076V35.7626H75.5297ZM84.8569 35.7626L81.1889 30.4582H84.815L88.5249 35.7626H84.8569ZM78.9252 30.5835L77.4161 28.9963H81.6919C82.7399 28.9963 83.5223 28.7737 84.0395 28.3281C84.5564 27.8686 84.815 27.2421 84.815 26.4486C84.815 25.6411 84.5564 25.0146 84.0395 24.569C83.5223 24.1235 82.7399 23.9008 81.6919 23.9008H77.4161L78.9252 22.2927V30.5835ZM103.397 36.0132C101.315 36.0132 99.6871 35.4355 98.5134 34.2799C97.3396 33.1242 96.7527 31.4744 96.7527 29.3305V21.1442H100.148V29.2052C100.148 30.5973 100.435 31.5997 101.008 32.2124C101.581 32.8251 102.384 33.1313 103.418 33.1313C104.452 33.1313 105.255 32.8251 105.828 32.2124C106.401 31.5997 106.688 30.5973 106.688 29.2052V21.1442H110.041V29.3305C110.041 31.4744 109.455 33.1242 108.281 34.2799C107.107 35.4355 105.479 36.0132 103.397 36.0132ZM113.397 35.7626V21.1442H119.748C121.061 21.1442 122.193 21.36 123.143 21.7915C124.093 22.2092 124.827 22.8148 125.344 23.6084C125.861 24.402 126.12 25.3487 126.12 26.4486C126.12 27.5345 125.861 28.4743 125.344 29.2678C124.827 30.0614 124.093 30.6741 123.143 31.1056C122.193 31.5232 121.061 31.7321 119.748 31.7321H115.283L116.792 30.2076V35.7626H113.397ZM116.792 30.5835L115.283 28.9755H119.559C120.607 28.9755 121.39 28.7528 121.907 28.3072C122.424 27.8616 122.682 27.2421 122.682 26.4486C122.682 25.6411 122.424 25.0146 121.907 24.569C121.39 24.1235 120.607 23.9008 119.559 23.9008H115.283L116.792 22.2927V30.5835Z" fill="#989898"/>
<path d="M50.5702 44.2158C50.1007 44.2158 49.6509 44.1545 49.2204 44.032C48.7899 43.9039 48.4436 43.7397 48.1808 43.5392L48.6419 42.5201C48.8934 42.6984 49.1898 42.8459 49.5306 42.9628C49.8772 43.0743 50.2265 43.1299 50.5786 43.1299C50.8469 43.1299 51.062 43.1048 51.2242 43.0547C51.3919 42.9991 51.5147 42.9239 51.5931 42.8292C51.6714 42.7344 51.7105 42.6258 51.7105 42.5034C51.7105 42.3475 51.6489 42.2248 51.526 42.1358C51.4031 42.0411 51.2409 41.9659 51.0397 41.9103C50.8385 41.8489 50.615 41.7933 50.369 41.7432C50.1288 41.6876 49.8856 41.6208 49.6396 41.5427C49.3994 41.4647 49.1785 41.3644 48.9773 41.242C48.7761 41.1196 48.6113 40.958 48.4826 40.7575C48.3597 40.557 48.2982 40.301 48.2982 39.989C48.2982 39.6549 48.3875 39.3513 48.5665 39.0785C48.7509 38.8 49.0247 38.5802 49.3881 38.4186C49.757 38.2515 50.2181 38.168 50.7714 38.168C51.1403 38.168 51.5037 38.2126 51.8614 38.3016C52.219 38.3852 52.535 38.5133 52.8088 38.6859L52.3896 39.7133C52.1158 39.5575 51.8417 39.4432 51.5679 39.3709C51.2941 39.2928 51.0258 39.2539 50.7631 39.2539C50.5003 39.2539 50.2852 39.2844 50.1175 39.3458C49.9498 39.4071 49.8296 39.4878 49.757 39.588C49.6844 39.6828 49.648 39.794 49.648 39.9222C49.648 40.0725 49.7096 40.195 49.8324 40.2897C49.9553 40.3787 50.1175 40.4513 50.3187 40.5069C50.5199 40.5625 50.7408 40.6184 50.981 40.674C51.2271 40.7296 51.4702 40.7938 51.7105 40.8661C51.9565 40.9384 52.18 41.036 52.3812 41.1585C52.5824 41.2809 52.7446 41.4425 52.8674 41.643C52.9961 41.8435 53.0603 42.0969 53.0603 42.4031C53.0603 42.7318 52.9681 43.0325 52.7836 43.3053C52.5992 43.5781 52.3225 43.7981 51.9536 43.9652C51.5902 44.1323 51.1291 44.2158 50.5702 44.2158ZM55.4555 40.6239H58.2809V41.6764H55.4555V40.6239ZM55.5561 43.0296H58.7504V44.1156H54.2063V38.2682H58.6414V39.3541H55.5561V43.0296ZM60.0491 44.1156V38.2682H62.5895C63.1148 38.2682 63.5675 38.3546 63.9477 38.5272C64.3278 38.6942 64.6213 38.9365 64.828 39.2539C65.0347 39.5713 65.1382 39.9501 65.1382 40.39C65.1382 40.8243 65.0347 41.2002 64.828 41.5177C64.6213 41.8296 64.3278 42.069 63.9477 42.2361C63.5675 42.4031 63.1148 42.4867 62.5895 42.4867H60.8037L61.4073 41.8936V44.1156H60.0491ZM63.78 44.1156L62.3128 41.9938H63.7632L65.2472 44.1156H63.78ZM61.4073 42.0439L60.8037 41.4091H62.514C62.9332 41.4091 63.2463 41.3201 63.453 41.1418C63.6597 40.958 63.7632 40.7074 63.7632 40.39C63.7632 40.0671 63.6597 39.8165 63.453 39.6382C63.2463 39.4599 62.9332 39.3709 62.514 39.3709H60.8037L61.4073 38.7276V42.0439ZM68.1929 44.1156L65.6609 38.2682H67.1281L69.3415 43.4473H68.4779L70.7248 38.2682H72.0747L69.5343 44.1156H68.1929ZM72.7828 44.1156V38.2682H74.1411V44.1156H72.7828ZM78.5602 44.2158C78.1075 44.2158 77.6857 44.1435 77.2942 43.9986C76.9086 43.8483 76.5732 43.6366 76.2881 43.3638C76.0031 43.091 75.7796 42.7707 75.6174 42.4031C75.461 42.0356 75.3827 41.6318 75.3827 41.1919C75.3827 40.752 75.461 40.3482 75.6174 39.9807C75.7796 39.6131 76.0031 39.2928 76.2881 39.02C76.579 38.7472 76.9169 38.5384 77.3026 38.3935C77.6883 38.2431 78.1104 38.168 78.5686 38.168C79.0774 38.168 79.5356 38.257 79.9436 38.4353C80.3573 38.6078 80.7039 38.8642 80.9832 39.2038L80.1113 40.0057C79.91 39.7773 79.6866 39.6076 79.4405 39.4962C79.1948 39.3792 78.9265 39.3207 78.6357 39.3207C78.3619 39.3207 78.1104 39.3654 77.8811 39.4544C77.6521 39.5434 77.4535 39.6716 77.2858 39.8386C77.1182 40.0057 76.9869 40.2033 76.8918 40.4317C76.8025 40.6601 76.7576 40.9134 76.7576 41.1919C76.7576 41.4704 76.8025 41.7236 76.8918 41.9521C76.9869 42.1805 77.1182 42.3781 77.2858 42.5451C77.4535 42.7122 77.6521 42.8404 77.8811 42.9294C78.1104 43.0184 78.3619 43.0631 78.6357 43.0631C78.9265 43.0631 79.1948 43.0075 79.4405 42.896C79.6866 42.779 79.91 42.6036 80.1113 42.3697L80.9832 43.1716C80.7039 43.5113 80.3573 43.7702 79.9436 43.9485C79.5356 44.1268 79.0745 44.2158 78.5602 44.2158ZM83.3676 40.6239H86.1931V41.6764H83.3676V40.6239ZM83.4683 43.0296H86.6626V44.1156H82.1184V38.2682H86.5536V39.3541H83.4683V43.0296ZM93.3624 44.2158C92.9097 44.2158 92.4876 44.1435 92.0964 43.9986C91.7108 43.8483 91.3754 43.6366 91.0904 43.3638C90.8053 43.091 90.5816 42.7707 90.4196 42.4031C90.263 42.0356 90.1849 41.6318 90.1849 41.1919C90.1849 40.752 90.263 40.3482 90.4196 39.9807C90.5816 39.6131 90.8053 39.2928 91.0904 39.02C91.3809 38.7472 91.7192 38.5384 92.1048 38.3935C92.4905 38.2431 92.9123 38.168 93.3708 38.168C93.8794 38.168 94.3376 38.257 94.7458 38.4353C95.1592 38.6078 95.5058 38.8642 95.7854 39.2038L94.9135 40.0057C94.7123 39.7773 94.4885 39.6076 94.2427 39.4962C93.9967 39.3792 93.7284 39.3207 93.4379 39.3207C93.1638 39.3207 92.9123 39.3654 92.6833 39.4544C92.4541 39.5434 92.2557 39.6716 92.0881 39.8386C91.9204 40.0057 91.7888 40.2033 91.694 40.4317C91.6044 40.6601 91.5599 40.9134 91.5599 41.1919C91.5599 41.4704 91.6044 41.7236 91.694 41.9521C91.7888 42.1805 91.9204 42.3781 92.0881 42.5451C92.2557 42.7122 92.4541 42.8404 92.6833 42.9294C92.9123 43.0184 93.1638 43.0631 93.4379 43.0631C93.7284 43.0631 93.9967 43.0075 94.2427 42.896C94.4885 42.779 94.7123 42.6036 94.9135 42.3697L95.7854 43.1716C95.5058 43.5113 95.1592 43.7702 94.7458 43.9485C94.3376 44.1268 93.8765 44.2158 93.3624 44.2158ZM98.1696 40.6239H100.995V41.6764H98.1696V40.6239ZM98.2702 43.0296H101.465V44.1156H96.9204V38.2682H101.356V39.3541H98.2702V43.0296ZM102.763 44.1156V38.2682H103.887L107.349 42.4783H106.804V38.2682H108.146V44.1156H107.031L103.56 39.9055H104.105V44.1156H102.763ZM110.968 44.1156V39.3709H109.09V38.2682H114.204V39.3709H112.326V44.1156H110.968ZM116.402 40.6239H119.228V41.6764H116.402V40.6239ZM116.503 43.0296H119.697V44.1156H115.153V38.2682H119.588V39.3541H116.503V43.0296ZM120.996 44.1156V38.2682H123.536C124.061 38.2682 124.514 38.3546 124.894 38.5272C125.274 38.6942 125.568 38.9365 125.775 39.2539C125.981 39.5713 126.085 39.9501 126.085 40.39C126.085 40.8243 125.981 41.2002 125.775 41.5177C125.568 41.8296 125.274 42.069 124.894 42.2361C124.514 42.4031 124.061 42.4867 123.536 42.4867H121.75L122.354 41.8936V44.1156H120.996ZM124.727 44.1156L123.26 41.9938H124.71L126.194 44.1156H124.727ZM122.354 42.0439L121.75 41.4091H123.461C123.88 41.4091 124.193 41.3201 124.4 41.1418C124.606 40.958 124.71 40.7074 124.71 40.39C124.71 40.0671 124.606 39.8165 124.4 39.6382C124.193 39.4599 123.88 39.3709 123.461 39.3709H121.75L122.354 38.7276V42.0439Z" fill="#EAB308"/>
<path d="M23.1872 6.00391C19.4319 10.2676 13.1 23.5199 17.816 41.3753C16.506 39.7221 13.8074 35.1363 14.017 30.0199C13.493 30.0199 12.838 32.7608 12.838 38.5038C12.838 39.548 10.9778 34.8492 11.921 24.4075C11.5717 24.7555 11.0244 27.0563 10.087 33.2829C9.89048 34.5881 8.90798 27.2789 9.69398 20.8834C9.12631 22.2321 7.99098 25.8954 7.46698 29.7588C7.14834 32.1082 6.02603 9.78903 18.995 6.00391H23.1872Z" fill="#404040"/>
<path d="M10.087 33.2829C11.0244 27.0563 11.5717 24.7555 11.921 24.4075C10.9778 34.8492 12.838 39.548 12.838 38.5038C12.838 32.7608 13.493 30.0199 14.017 30.0199C13.8074 35.1363 16.506 39.7221 17.816 41.3753C13.1 23.5199 19.4319 10.2676 23.1872 6.00391H18.995C6.02603 9.78903 7.14834 32.1082 7.46698 29.7588C7.99098 25.8954 9.12631 22.2321 9.69398 20.8834M10.087 33.2829C9.89048 34.5881 8.90798 27.2789 9.69398 20.8834M10.087 33.2829L9.69398 20.8834" stroke="#404040"/>
</g>
</svg>
