<svg width="29" height="29" viewBox="0 0 29 29" fill="none" xmlns="http://www.w3.org/2000/svg">
<path d="M21.7502 6.04167L18.1252 2.41667H7.25016C6.60922 2.41667 5.99453 2.67128 5.54132 3.12449C5.08811 3.57771 4.8335 4.19239 4.8335 4.83333V24.1667C4.8335 24.8076 5.08811 25.4223 5.54132 25.8755C5.99453 26.3287 6.60922 26.5833 7.25016 26.5833H21.7502C22.3911 26.5833 23.0058 26.3287 23.459 25.8755C23.9122 25.4223 24.1668 24.8076 24.1668 24.1667" stroke-width="1.5" stroke-linecap="round" stroke-linejoin="round"/>
<path d="M9.6665 21.75H10.8748" stroke-width="1.5" stroke-linecap="round" stroke-linejoin="round"/>
<path d="M22.2335 11.6C22.7142 11.1193 23.3662 10.8492 24.046 10.8492C24.7258 10.8492 25.3778 11.1193 25.8585 11.6C26.3392 12.0807 26.6093 12.7327 26.6093 13.4125C26.6093 14.0923 26.3392 14.7443 25.8585 15.225L20.5418 20.5417L15.7085 21.75L16.9168 16.9167L22.2335 11.6Z" stroke-width="1.5" stroke-linecap="round" stroke-linejoin="round"/>
</svg>
