<svg width="29" height="29" viewBox="0 0 29 29" fill="none" xmlns="http://www.w3.org/2000/svg">
<path d="M20.5413 21.75C20.5413 21.1091 20.2867 20.4944 19.8335 20.0412C19.3803 19.5879 18.7656 19.3333 18.1247 19.3333H10.8747C10.2337 19.3333 9.61905 19.5879 9.16583 20.0412C8.71262 20.4944 8.45801 21.1091 8.45801 21.75" stroke-width="1.5" stroke-linecap="round" stroke-linejoin="round"/>
<path d="M22.9583 4.83334H6.04167C4.70698 4.83334 3.625 5.91531 3.625 7.25V24.1667C3.625 25.5014 4.70698 26.5833 6.04167 26.5833H22.9583C24.293 26.5833 25.375 25.5014 25.375 24.1667V7.25C25.375 5.91531 24.293 4.83334 22.9583 4.83334Z" stroke-width="1.5" stroke-linecap="round" stroke-linejoin="round"/>
<path d="M14.4997 14.5C15.8344 14.5 16.9163 13.418 16.9163 12.0833C16.9163 10.7486 15.8344 9.66666 14.4997 9.66666C13.165 9.66666 12.083 10.7486 12.083 12.0833C12.083 13.418 13.165 14.5 14.4997 14.5Z" stroke-width="1.5" stroke-linecap="round" stroke-linejoin="round"/>
<path d="M9.66699 2.41666V4.83333" stroke-width="1.5" stroke-linecap="round" stroke-linejoin="round"/>
<path d="M19.333 2.41666V4.83333" stroke-width="1.5" stroke-linecap="round" stroke-linejoin="round"/>
</svg>
