<svg width="29" height="29" viewBox="0 0 29 29" fill="none" xmlns="http://www.w3.org/2000/svg">
<path d="M17.7626 7.6125C17.5412 7.83837 17.4172 8.14205 17.4172 8.45833C17.4172 8.77462 17.5412 9.07829 17.7626 9.30417L19.696 11.2375C19.9218 11.4589 20.2255 11.5829 20.5418 11.5829C20.8581 11.5829 21.1618 11.4589 21.3876 11.2375L25.943 6.68208C26.5506 8.02477 26.7346 9.52074 26.4704 10.9706C26.2063 12.4205 25.5065 13.7555 24.4644 14.7976C23.4223 15.8397 22.0873 16.5395 20.6374 16.8036C19.1875 17.0678 17.6916 16.8838 16.3489 16.2763L7.9993 24.6258C7.51859 25.1065 6.86662 25.3766 6.1868 25.3766C5.50698 25.3766 4.855 25.1065 4.3743 24.6258C3.89359 24.1451 3.62354 23.4932 3.62354 22.8133C3.62354 22.1335 3.89359 21.4815 4.3743 21.0008L12.7239 12.6513C12.1163 11.3086 11.9323 9.81259 12.1965 8.3627C12.4607 6.91281 13.1604 5.57785 14.2025 4.53575C15.2447 3.49364 16.5796 2.79387 18.0295 2.5297C19.4794 2.26552 20.9754 2.44949 22.318 3.05708L17.7747 7.60042L17.7626 7.6125Z" stroke-width="1.5" stroke-linecap="round" stroke-linejoin="round"/>
</svg>
