<svg width="29" height="29" viewBox="0 0 29 29" fill="none" xmlns="http://www.w3.org/2000/svg">
<path d="M4.65195 10.4158C4.47558 9.62138 4.50266 8.79527 4.73068 8.01408C4.9587 7.23288 5.38027 6.52191 5.95631 5.94708C6.53235 5.37225 7.2442 4.95216 8.02587 4.72578C8.80753 4.4994 9.63371 4.47405 10.4278 4.65208C10.8648 3.96853 11.467 3.406 12.1786 3.01634C12.8902 2.62669 13.6885 2.42245 14.4999 2.42245C15.3112 2.42245 16.1095 2.62669 16.8211 3.01634C17.5328 3.406 18.1349 3.96853 18.572 4.65208C19.3672 4.47328 20.1948 4.49851 20.9777 4.72544C21.7607 4.95237 22.4735 5.37363 23.0498 5.95002C23.6262 6.52641 24.0475 7.23921 24.2744 8.02213C24.5014 8.80504 24.5266 9.63263 24.3478 10.4279C25.0313 10.865 25.5939 11.4671 25.9835 12.1787C26.3732 12.8904 26.5774 13.6887 26.5774 14.5C26.5774 15.3113 26.3732 16.1096 25.9835 16.8213C25.5939 17.5329 25.0313 18.135 24.3478 18.5721C24.5258 19.3662 24.5005 20.1923 24.2741 20.974C24.0477 21.7557 23.6276 22.4675 23.0528 23.0436C22.478 23.6196 21.767 24.0412 20.9858 24.2692C20.2046 24.4972 19.3785 24.5243 18.584 24.3479C18.1475 25.0341 17.545 25.599 16.8321 25.9904C16.1192 26.3818 15.3191 26.587 14.5059 26.587C13.6927 26.587 12.8926 26.3818 12.1797 25.9904C11.4669 25.599 10.8643 25.0341 10.4278 24.3479C9.63371 24.5259 8.80753 24.5006 8.02587 24.2742C7.2442 24.0478 6.53235 23.6278 5.95631 23.0529C5.38027 22.4781 4.9587 21.7671 4.73068 20.9859C4.50266 20.2047 4.47558 19.3786 4.65195 18.5842C3.96315 18.1483 3.39578 17.5452 3.00263 16.8311C2.60948 16.1171 2.40332 15.3151 2.40332 14.5C2.40332 13.6848 2.60948 12.8829 3.00263 12.1689C3.39578 11.4548 3.96315 10.8517 4.65195 10.4158Z" stroke-width="1.5" stroke-linecap="round" stroke-linejoin="round"/>
<path d="M19.3332 9.66667H12.0832C11.4422 9.66667 10.8275 9.92128 10.3743 10.3745C9.92112 10.8277 9.6665 11.4424 9.6665 12.0833C9.6665 12.7243 9.92112 13.339 10.3743 13.7922C10.8275 14.2454 11.4422 14.5 12.0832 14.5H16.9165C17.5574 14.5 18.1721 14.7546 18.6253 15.2078C19.0786 15.661 19.3332 16.2757 19.3332 16.9167C19.3332 17.5576 19.0786 18.1723 18.6253 18.6255C18.1721 19.0787 17.5574 19.3333 16.9165 19.3333H9.6665" stroke-width="1.5" stroke-linecap="round" stroke-linejoin="round"/>
<path d="M14.5 21.75V7.25"  stroke-width="1.5" stroke-linecap="round" stroke-linejoin="round"/>
</svg>
