<svg width="70" height="70" viewBox="0 0 70 70" fill="none" xmlns="http://www.w3.org/2000/svg">
<path d="M14.0109 25.9766H7.65625C7.36617 25.9766 7.08797 26.0918 6.88285 26.2969C6.67773 26.502 6.5625 26.7802 6.5625 27.0703V33.425C6.5625 33.7151 6.67773 33.9933 6.88285 34.1984C7.08797 34.4035 7.36617 34.5187 7.65625 34.5187H14.0109C14.301 34.5187 14.5792 34.4035 14.7843 34.1984C14.9895 33.9933 15.1047 33.7151 15.1047 33.425V27.0703C15.1047 26.7802 14.9895 26.502 14.7843 26.2969C14.5792 26.0918 14.301 25.9766 14.0109 25.9766ZM12.9172 32.3312H8.75V28.1641H12.9172V32.3312ZM14.0109 37.7781H7.65625C7.36617 37.7781 7.08797 37.8934 6.88285 38.0985C6.67773 38.3036 6.5625 38.5818 6.5625 38.8719V45.2266C6.5625 45.5166 6.67773 45.7948 6.88285 46C7.08797 46.2051 7.36617 46.3203 7.65625 46.3203H14.0109C14.301 46.3203 14.5792 46.2051 14.7843 46C14.9895 45.7948 15.1047 45.5166 15.1047 45.2266V38.8719C15.1047 38.5818 14.9895 38.3036 14.7843 38.0985C14.5792 37.8934 14.301 37.7781 14.0109 37.7781ZM12.9172 44.1328H8.75V39.9656H12.9172V44.1328ZM14.0109 48.6828H7.65625C7.36617 48.6828 7.08797 48.798 6.88285 49.0032C6.67773 49.2083 6.5625 49.4865 6.5625 49.7766V56.1313C6.5625 56.4213 6.67773 56.6995 6.88285 56.9046C7.08797 57.1098 7.36617 57.225 7.65625 57.225H14.0109C14.301 57.225 14.5792 57.1098 14.7843 56.9046C14.9895 56.6995 15.1047 56.4213 15.1047 56.1313V49.7766C15.1047 49.4865 14.9895 49.2083 14.7843 49.0032C14.5792 48.798 14.301 48.6828 14.0109 48.6828ZM12.9172 55.0375H8.75V50.8703H12.9172V55.0375ZM21.875 27.9562L19.6875 30.2094L18.9219 29.5312C18.8202 29.4287 18.6992 29.3474 18.5659 29.2918C18.4327 29.2363 18.2897 29.2077 18.1453 29.2077C18.0009 29.2077 17.858 29.2363 17.7247 29.2918C17.5914 29.3474 17.4704 29.4287 17.3688 29.5312C17.165 29.7362 17.0507 30.0134 17.0507 30.3023C17.0507 30.5913 17.165 30.8685 17.3688 31.0734L18.8891 32.5828C19.094 32.7865 19.3712 32.9009 19.6602 32.9009C19.9491 32.9009 20.2263 32.7865 20.4313 32.5828L23.4609 29.5312C23.5635 29.4296 23.6448 29.3086 23.7003 29.1753C23.7559 29.042 23.7845 28.8991 23.7845 28.7547C23.7845 28.6103 23.7559 28.4673 23.7003 28.3341C23.6448 28.2008 23.5635 28.0798 23.4609 27.9781C23.3603 27.8691 23.2384 27.7818 23.1029 27.7214C22.9674 27.661 22.821 27.6288 22.6727 27.6267C22.5243 27.6247 22.3771 27.6528 22.24 27.7095C22.1028 27.7661 21.9787 27.8501 21.875 27.9562ZM21.875 39.7688L19.6875 42.0219L18.9547 41.2781C18.8527 41.1761 18.7316 41.0952 18.5984 41.0401C18.4652 40.9849 18.3223 40.9565 18.1781 40.9565C18.0339 40.9565 17.8911 40.9849 17.7579 41.0401C17.6246 41.0952 17.5035 41.1761 17.4016 41.2781C17.2996 41.3801 17.2187 41.5012 17.1635 41.6344C17.1083 41.7677 17.0799 41.9105 17.0799 42.0547C17.0799 42.1989 17.1083 42.3417 17.1635 42.475C17.2187 42.6082 17.2996 42.7293 17.4016 42.8312L18.9219 44.3406C19.1268 44.5443 19.404 44.6587 19.693 44.6587C19.9819 44.6587 20.2591 44.5443 20.4641 44.3406L23.4937 41.3109C23.6983 41.0963 23.8091 40.8092 23.8019 40.5128C23.7948 40.2164 23.6701 39.935 23.4555 39.7305C23.2408 39.526 22.9537 39.4151 22.6573 39.4223C22.3609 39.4295 22.0795 39.5541 21.875 39.7688ZM21.875 50.6625L19.6875 52.9156L18.9547 52.1828C18.853 52.0803 18.732 51.9989 18.5988 51.9434C18.4655 51.8879 18.3225 51.8593 18.1781 51.8593C18.0337 51.8593 17.8908 51.8879 17.7575 51.9434C17.6242 51.9989 17.5032 52.0803 17.4016 52.1828C17.1979 52.3877 17.0835 52.665 17.0835 52.9539C17.0835 53.2429 17.1979 53.5201 17.4016 53.725L18.9219 55.2344C19.1268 55.4381 19.404 55.5524 19.693 55.5524C19.9819 55.5524 20.2591 55.4381 20.4641 55.2344L23.4937 52.2156C23.5963 52.1139 23.6776 51.993 23.7332 51.8597C23.7887 51.7264 23.8173 51.5834 23.8173 51.4391C23.8173 51.2947 23.7887 51.1517 23.7332 51.0184C23.6776 50.8851 23.5963 50.7642 23.4937 50.6625C23.3912 50.5497 23.2663 50.4596 23.1269 50.3979C22.9875 50.3363 22.8368 50.3044 22.6844 50.3044C22.532 50.3044 22.3812 50.3363 22.2418 50.3979C22.1025 50.4596 21.9775 50.5497 21.875 50.6625ZM39.6812 29.6078H26.9719C26.6818 29.6078 26.4036 29.723 26.1985 29.9282C25.9934 30.1333 25.8781 30.4115 25.8781 30.7016C25.8781 30.9916 25.9934 31.2698 26.1985 31.475C26.4036 31.6801 26.6818 31.7953 26.9719 31.7953H39.6812C39.9713 31.7953 40.2495 31.6801 40.4546 31.475C40.6598 31.2698 40.775 30.9916 40.775 30.7016C40.775 30.4115 40.6598 30.1333 40.4546 29.9282C40.2495 29.723 39.9713 29.6078 39.6812 29.6078ZM39.6812 41.4094H26.9719C26.6818 41.4094 26.4036 41.5246 26.1985 41.7297C25.9934 41.9348 25.8781 42.213 25.8781 42.5031C25.8781 42.7932 25.9934 43.0714 26.1985 43.2765C26.4036 43.4816 26.6818 43.5969 26.9719 43.5969H39.6812C39.9713 43.5969 40.2495 43.4816 40.4546 43.2765C40.6598 43.0714 40.775 42.7932 40.775 42.5031C40.775 42.213 40.6598 41.9348 40.4546 41.7297C40.2495 41.5246 39.9713 41.4094 39.6812 41.4094ZM39.6812 52.3141H26.9719C26.6818 52.3141 26.4036 52.4293 26.1985 52.6344C25.9934 52.8395 25.8781 53.1177 25.8781 53.4078C25.8781 53.6979 25.9934 53.9761 26.1985 54.1812C26.4036 54.3863 26.6818 54.5016 26.9719 54.5016H39.6812C39.9713 54.5016 40.2495 54.3863 40.4546 54.1812C40.6598 53.9761 40.775 53.6979 40.775 53.4078C40.775 53.1177 40.6598 52.8395 40.4546 52.6344C40.2495 52.4293 39.9713 52.3141 39.6812 52.3141Z" fill="#EAB308"/>
<path d="M67.8125 11.55H2.1875C1.89742 11.55 1.61922 11.6653 1.4141 11.8704C1.20898 12.0755 1.09375 12.3537 1.09375 12.6438V61.8079C1.09375 62.0979 1.20898 62.3761 1.4141 62.5813C1.61922 62.7864 1.89742 62.9016 2.1875 62.9016H67.8125C68.1026 62.9016 68.3808 62.7864 68.5859 62.5813C68.791 62.3761 68.9062 62.0979 68.9062 61.8079V12.6438C68.9062 12.3537 68.791 12.0755 68.5859 11.8704C68.3808 11.6653 68.1026 11.55 67.8125 11.55ZM66.7188 13.7375V20.7813H3.28125V13.7375H66.7188ZM3.28125 60.7141V22.9688H66.7188V60.7141H3.28125Z" fill="#EAB308"/>
<path d="M62.3437 26.2501H44.8437C44.5536 26.2501 44.2754 26.3654 44.0703 26.5705C43.8652 26.7756 43.75 27.0538 43.75 27.3439V55.7814C43.75 56.0715 43.8652 56.3497 44.0703 56.5548C44.2754 56.7599 44.5536 56.8751 44.8437 56.8751H62.3437C62.6338 56.8751 62.912 56.7599 63.1171 56.5548C63.3222 56.3497 63.4375 56.0715 63.4375 55.7814V27.3439C63.4375 27.0538 63.3222 26.7756 63.1171 26.5705C62.912 26.3654 62.6338 26.2501 62.3437 26.2501ZM61.25 54.6876H45.9375V28.4376H61.25V54.6876ZM6.20154 18.4626H14.514C14.8041 18.4626 15.0823 18.3474 15.2874 18.1423C15.4926 17.9372 15.6078 17.659 15.6078 17.3689C15.6078 17.0788 15.4926 16.8006 15.2874 16.5955C15.0823 16.3904 14.8041 16.2751 14.514 16.2751H6.20154C5.91146 16.2751 5.63326 16.3904 5.42814 16.5955C5.22302 16.8006 5.10779 17.0788 5.10779 17.3689C5.10779 17.659 5.22302 17.9372 5.42814 18.1423C5.63326 18.3474 5.91146 18.4626 6.20154 18.4626Z" fill="#EAB308"/>
<path d="M51.5703 52.5547H55.6172C55.9073 52.5547 56.1855 52.4395 56.3906 52.2343C56.5957 52.0292 56.7109 51.751 56.7109 51.4609C56.7109 51.1709 56.5957 50.8927 56.3906 50.6875C56.1855 50.4824 55.9073 50.3672 55.6172 50.3672H51.5703C51.2802 50.3672 51.002 50.4824 50.7969 50.6875C50.5918 50.8927 50.4766 51.1709 50.4766 51.4609C50.4766 51.751 50.5918 52.0292 50.7969 52.2343C51.002 52.4395 51.2802 52.5547 51.5703 52.5547Z" fill="#EAB308"/>
</svg>
