<svg width="82" height="36" viewBox="0 0 82 36" fill="none" xmlns="http://www.w3.org/2000/svg">
<path d="M81.0719 34.2395C80.265 28.4205 79.4516 22.6036 78.638 16.7866C78.3779 14.9312 75.4469 14.9122 75.6713 16.8224C76.0611 20.1333 76.4523 23.4433 76.842 26.7541C57.1763 6.63157 28.4743 -6.50747 0.820275 5.4158C-0.0455782 5.78909 0.286021 7.20552 1.22742 6.87309C30.1039 -3.33581 58.6226 9.80161 77.7508 31.9727C77.756 32.0108 77.7604 32.0473 77.7656 32.0854C74.4315 30.9812 71.0982 29.8786 67.7445 28.8333C65.9398 28.2708 65.2982 31.0466 67.0415 31.6538C71.0797 33.0583 75.1446 34.3801 79.2047 35.7166C80.048 35.9941 81.2006 35.1681 81.0719 34.2395Z" fill="#EAB308"/>
</svg>
