<svg width="88" height="90" viewBox="0 0 88 90" fill="none" xmlns="http://www.w3.org/2000/svg">
<g clip-path="url(#clip0_67_9)">
<path d="M43.9999 90C55.7527 90 66.8018 85.3189 75.1125 76.8196C83.423 68.3202 88 57.0198 88 44.9999C88 32.9802 83.423 21.6798 75.1125 13.1804C66.8019 4.68087 55.7527 0 43.9999 0C19.7382 0 0 20.1868 0 44.9999C0 57.0198 4.57685 68.3202 12.8875 76.8196C21.1981 85.3189 32.2474 90 43.9999 90Z" fill="#171717"/>
<path d="M1.52234 44.9998C1.52234 33.3961 5.94085 22.4866 13.9639 14.2812C21.9869 6.07563 32.6539 1.55688 43.9999 1.55688C55.3459 1.55688 66.013 6.07563 74.0359 14.2812C82.0589 22.4866 86.4774 33.3959 86.4774 44.9998C86.4774 68.9545 67.422 88.4429 43.9999 88.4429C32.6539 88.4429 21.9869 83.924 13.9639 75.7186C5.94085 67.513 1.52234 56.6037 1.52234 44.9998Z" fill="white"/>
<path d="M44 3.34741C21.5074 3.34741 3.27307 21.9962 3.27307 44.9999C3.27307 68.0037 21.5074 86.6526 44 86.6526C66.4925 86.6526 84.7269 68.0037 84.7269 44.9999C84.7269 21.9962 66.4925 3.34741 44 3.34741Z" fill="#171717"/>
<path d="M43.9999 71.6061C29.6324 71.6061 17.9849 59.694 17.9849 44.9998C17.9849 30.3058 29.6324 18.3936 43.9999 18.3936C58.3674 18.3936 70.0149 30.3058 70.0149 44.9998C70.0149 59.694 58.3675 71.6061 43.9999 71.6061Z" fill="white"/>
<path d="M19.6586 45H43.9999V20.1055C30.5567 20.1055 19.6586 31.2515 19.6586 45ZM43.9999 45V69.8948C57.4431 69.8948 68.3413 58.7489 68.3413 45H43.9999Z" fill="#171717"/>
<path d="M24.8821 19.6146C24.0197 18.7574 22.6868 18.499 21.4353 19.2925C21.6744 18.659 21.5767 18.0124 21.4498 17.6557C20.9107 16.6503 20.7225 16.5244 20.2782 16.1431C18.8398 14.9088 17.3261 15.9626 16.2435 17.2822L11.0126 23.6576L19.2354 30.7144L24.7518 23.991C26.0122 22.4548 26.2071 20.9318 24.8821 19.6146ZM45.3626 16.5851L48.1865 8.92999V16.5851H50.3327V5.62158H47.1081L44.175 13.4713H44.2054L41.2724 5.62158H38.0479V16.5851H40.194V8.92999L43.0181 16.5851H45.3626ZM74.2179 21.1463L70.1772 26.997L76.4415 23.9555L78.1001 26.0503L68.2403 30.9384L66.2937 28.4601L70.1719 22.6606L70.1489 22.6316L63.7958 25.3054L61.8302 22.8428L68.5554 13.9956L70.2141 16.0904L66.0026 21.7247L72.4385 18.8989L74.2179 21.1463Z" fill="white"/>
<path d="M17.3865 18.86C17.7505 18.4163 18.5731 18.4345 19.1022 18.8884C19.6838 19.3876 19.6852 20.0953 19.2946 20.5712L16.1882 24.3573L14.2446 22.6893L17.3865 18.86ZM22.9134 23.3264L19.6383 27.3182L17.5845 25.5557L20.8862 21.5315C21.259 21.0771 22.0903 20.9447 22.6509 21.426C23.2855 21.9704 23.3484 22.7964 22.9134 23.3264Z" fill="#171717"/>
</g>
<defs>
<clipPath id="clip0_67_9">
<rect width="88" height="90" fill="white"/>
</clipPath>
</defs>
</svg>
