<svg width="45" height="45" viewBox="0 0 30 30" xmlns="http://www.w3.org/2000/svg">
<path d="M1.7417 13.5144V21.3475H12.4174H23.0931L23.3279 20.9559C23.7008 20.3346 25.0957 19.1462 25.9105 18.768C26.3248 18.5654 27.0292 18.3358 27.4711 18.2413L28.2583 18.0657V16.337V14.6083L22.5959 10.1381L16.9335 5.68127H9.33761H1.7417V13.5144ZM21.422 10.6513C24.2256 12.7851 26.5458 14.6489 26.5734 14.7704C26.7115 15.4187 27.0844 15.4052 14.7376 15.4052C5.92635 15.4052 3.13658 15.3646 3.01229 15.2431C2.7775 15.0135 2.7775 7.15336 3.01229 6.92377C3.13658 6.80222 4.82149 6.7617 9.75193 6.7617H16.312L21.422 10.6513ZM21.5463 17.3229C21.6568 17.4985 21.6568 17.6335 21.5463 17.7956C21.422 17.9982 21.1458 18.0522 20.0409 18.0792C18.6599 18.1197 18.3146 18.0117 18.3146 17.5795C18.3146 17.1068 18.6046 17.0123 20.0271 17.0528C21.1458 17.0798 21.422 17.1338 21.5463 17.3229Z"/>
<path d="M3.95166 11.0834V14.3247H14.1854H24.4192L20.1655 11.0834L15.898 7.84214H9.93171H3.95166V11.0834Z"/>
<path d="M1.7417 23.2383V24.0486H11.934H22.1402L22.2921 23.3598C22.3888 22.9817 22.4578 22.617 22.4578 22.5495C22.4578 22.482 18.3422 22.428 12.0998 22.428H1.7417V23.2383Z"/>
</svg>
