<svg  viewBox="0 0 40 40" fill="none" xmlns="http://www.w3.org/2000/svg">
<path d="M31.6663 28.3334H34.9997C35.9997 28.3334 36.6663 27.6667 36.6663 26.6667V21.6667C36.6663 20.1667 35.4997 18.8334 34.1663 18.5001C31.1663 17.6667 26.6663 16.6667 26.6663 16.6667C26.6663 16.6667 24.4997 14.3334 22.9997 12.8334C22.1663 12.1667 21.1663 11.6667 19.9997 11.6667H8.33301C7.33301 11.6667 6.49967 12.3334 5.99967 13.1667L3.66634 18.0001C3.44564 18.6438 3.33301 19.3196 3.33301 20.0001V26.6667C3.33301 27.6667 3.99967 28.3334 4.99967 28.3334H8.33301" stroke="#EAB308" stroke-width="1.3" stroke-linecap="round" stroke-linejoin="round"/>
<path d="M11.6663 31.6667C13.5073 31.6667 14.9997 30.1743 14.9997 28.3333C14.9997 26.4924 13.5073 25 11.6663 25C9.82539 25 8.33301 26.4924 8.33301 28.3333C8.33301 30.1743 9.82539 31.6667 11.6663 31.6667Z" stroke="#EAB308" stroke-width="1.3" stroke-linecap="round" stroke-linejoin="round"/>
<path d="M15 28.3333H25" stroke="#EAB308" stroke-width="1.5" stroke-linecap="round" stroke-linejoin="round"/>
<path d="M28.3333 31.6667C30.1743 31.6667 31.6667 30.1743 31.6667 28.3333C31.6667 26.4924 30.1743 25 28.3333 25C26.4924 25 25 26.4924 25 28.3333C25 30.1743 26.4924 31.6667 28.3333 31.6667Z" stroke="#EAB308" stroke-width="1.3" stroke-linecap="round" stroke-linejoin="round"/>
</svg>
