<svg width="29" height="29" viewBox="0 0 29 29" fill="none" xmlns="http://www.w3.org/2000/svg">
<path d="M22.9582 20.5417H25.3748C26.0998 20.5417 26.5832 20.0583 26.5832 19.3333V15.7083C26.5832 14.6208 25.7373 13.6542 24.7707 13.4125C22.5957 12.8083 19.3332 12.0833 19.3332 12.0833C19.3332 12.0833 17.7623 10.3917 16.6748 9.30417C16.0707 8.82084 15.3457 8.45834 14.4998 8.45834H6.0415C5.3165 8.45834 4.71234 8.94167 4.34984 9.54584L2.65817 13.05C2.49816 13.5167 2.4165 14.0066 2.4165 14.5V19.3333C2.4165 20.0583 2.89984 20.5417 3.62484 20.5417H6.0415" stroke-width="1.5" stroke-linecap="round" stroke-linejoin="round"/>
<path d="M8.45817 22.9583C9.79286 22.9583 10.8748 21.8764 10.8748 20.5417C10.8748 19.207 9.79286 18.125 8.45817 18.125C7.12348 18.125 6.0415 19.207 6.0415 20.5417C6.0415 21.8764 7.12348 22.9583 8.45817 22.9583Z" stroke-width="1.5" stroke-linecap="round" stroke-linejoin="round"/>
<path d="M10.875 20.5417H18.125"  stroke-width="1.5" stroke-linecap="round" stroke-linejoin="round"/>
<path d="M20.5417 22.9583C21.8764 22.9583 22.9583 21.8764 22.9583 20.5417C22.9583 19.207 21.8764 18.125 20.5417 18.125C19.207 18.125 18.125 19.207 18.125 20.5417C18.125 21.8764 19.207 22.9583 20.5417 22.9583Z" stroke-width="1.5" stroke-linecap="round" stroke-linejoin="round"/>
</svg>
