<svg width="165" height="169" viewBox="0 0 165 169" fill="none" xmlns="http://www.w3.org/2000/svg">
<path d="M144.004 82.6833C144.024 82.7951 144.024 82.9096 144.004 83.0213V82.6833Z" fill="#4F4C4D"/>
<path d="M82.5 60.7556C48.1388 60.7556 20.625 71.3181 20.625 84.5001C20.625 97.6821 48.3862 108.245 82.5 108.245C116.614 108.245 144.375 97.5976 144.375 84.5001C144.375 71.4026 116.614 60.7556 82.5 60.7556Z" fill="#171717"/>
<path d="M24.0901 84.4999C24.0901 95.9919 50.2426 105.329 82.4588 105.329C114.716 105.329 140.828 95.9919 140.828 84.4999C140.828 73.0079 114.758 63.7129 82.5001 63.7129C50.2426 63.7129 24.0901 73.0079 24.0901 84.4999ZM26.1526 84.4999C26.1526 73.9796 51.3563 65.4874 82.5001 65.4874C113.603 65.4874 138.848 73.9374 138.848 84.4999C138.848 95.0201 113.644 103.512 82.5001 103.512C51.3976 103.512 26.1526 95.0624 26.1526 84.4999Z" fill="white"/>
<path d="M115.5 77.4442C115.407 77.4272 115.312 77.4431 115.23 77.4892C115.147 77.5353 115.082 77.6089 115.046 77.6977C114.675 78.416 110.302 85.0915 109.519 86.4012C109.519 86.6125 109.23 86.4012 109.189 86.4012C109.093 85.9284 108.88 85.489 108.569 85.1261C108.258 84.7632 107.86 84.4892 107.415 84.331C106.669 84.0267 105.859 83.9248 105.064 84.0352C103.649 84.3017 102.326 84.9425 101.227 85.8942C99.5362 87.204 98.0512 88.9362 96.195 90.1192C95.1637 90.7952 93.7612 91.429 92.8125 90.4995C92.3864 89.8862 92.2046 89.1296 92.3043 88.3838C92.4039 87.638 92.7774 86.9592 93.3487 86.4857H93.6375C93.5689 86.7872 93.5785 87.1018 93.6653 87.3982C93.7522 87.6947 93.9132 87.9627 94.1325 88.1757C94.4213 88.4224 94.774 88.5778 95.1475 88.6228C95.5211 88.6678 95.8993 88.6005 96.2362 88.4292C96.6327 88.2212 96.9723 87.9152 97.2244 87.539C97.4764 87.1628 97.633 86.7282 97.68 86.2745C97.72 85.9436 97.6949 85.6077 97.606 85.287C97.517 84.9662 97.3662 84.6669 97.1623 84.4069C96.9585 84.1469 96.7058 83.9314 96.4191 83.7732C96.1325 83.615 95.8178 83.5174 95.4937 83.486C94.9195 83.4483 94.3439 83.5341 93.804 83.7378C93.2641 83.9416 92.7718 84.2588 92.3587 84.669C91.8854 85.0731 91.469 85.5423 91.1212 86.0632C91.1212 86.0632 90.8325 86.0632 90.8737 86.0632C90.8737 84.2465 90.1725 83.2325 88.7287 83.1902C87.5025 83.2414 86.3335 83.7353 85.4287 84.5845C84.3914 85.5349 83.4132 86.5508 82.5 87.6265H82.2525C82.2465 86.4965 81.9475 85.3883 81.3862 84.4155C81.2798 84.269 81.1278 84.1641 80.9553 84.118C80.7828 84.0719 80.6002 84.0874 80.4375 84.162C80.0443 84.3471 79.671 84.5736 79.3237 84.838C79.2528 84.9436 79.2148 85.0689 79.2148 85.1971C79.2148 85.3254 79.2528 85.4506 79.3237 85.5562C79.8474 87.395 79.7456 89.3615 79.035 91.1332C78.7301 91.9273 78.2687 92.6485 77.6796 93.2518C77.0906 93.8551 76.3865 94.3277 75.6112 94.64C75.1558 94.8374 74.6491 94.874 74.1711 94.744C73.6931 94.6139 73.271 94.3246 72.9712 93.9217C72.5582 93.0907 72.3965 92.1524 72.5067 91.2267C72.6169 90.301 72.9941 89.43 73.59 88.725C74.7495 87.2456 76.294 86.1325 78.045 85.514C78.045 85.514 78.2925 85.514 78.045 85.1337C78.045 84.838 77.7975 84.4577 77.7562 84.2887C77.7562 83.8662 77.1787 83.824 76.6425 83.8662C75.4539 84.0203 74.3054 84.4077 73.26 85.007C71.0065 86.4144 69.3005 88.5799 68.4337 91.1332C68.2328 91.7264 67.9403 92.2827 67.5675 92.781C66.9637 93.5138 66.2862 94.1794 65.5462 94.7667C65.5054 94.8293 65.4836 94.9028 65.4836 94.978C65.4836 95.0532 65.5054 95.1267 65.5462 95.1892C65.7634 95.5734 66.0267 95.9283 66.33 96.2455C66.33 96.2455 66.7012 96.2455 66.7837 96.2455C67.5158 95.7277 68.1811 95.1173 68.7637 94.4287C68.7637 94.4287 69.0525 94.4287 69.135 94.4287C69.3195 95.1391 69.6719 95.7921 70.1611 96.33C70.6502 96.8679 71.2612 97.2742 71.94 97.513C73.2676 97.849 74.6623 97.7801 75.9522 97.3147C77.2421 96.8493 78.3711 96.0077 79.2 94.8935C80.0009 93.9553 80.7448 92.9676 81.4275 91.936C82.7 90.1131 84.1819 88.4534 85.8412 86.9927C86.5425 86.4435 87.4087 86.021 87.8212 86.2745C88.1512 86.2745 88.275 87.035 87.8212 88.049C85.8412 91.767 82.9125 96.161 82.3762 97.2172C81.84 98.2735 82.3762 97.5552 82.3762 97.5552H85.3875C85.4517 97.558 85.515 97.5387 85.5673 97.5004C85.6196 97.4621 85.6579 97.4071 85.6762 97.344L90.1725 90.1615C90.2017 90.7975 90.3709 91.4186 90.6675 91.9782C90.9103 92.3845 91.2494 92.7213 91.6532 92.9577C92.057 93.194 92.5125 93.3221 92.9775 93.3302C93.6338 93.3461 94.2843 93.2012 94.875 92.9077C95.4308 92.6963 95.9576 92.4123 96.4425 92.0627H96.69C96.3649 93.1097 96.4196 94.2416 96.844 95.2506C97.2683 96.2596 98.0339 97.0779 99 97.5552C100.098 97.9118 101.276 97.9212 102.38 97.5821C103.484 97.2429 104.462 96.571 105.187 95.654H105.476C105.532 96.2785 105.777 96.8696 106.177 97.344C107.374 98.5692 109.807 98.1045 112.2 96.161C113.925 94.739 115.488 93.1234 116.861 91.3445C116.891 91.3014 116.908 91.2497 116.908 91.1966C116.908 91.1435 116.891 91.0918 116.861 91.0487C116.62 90.7875 116.358 90.5473 116.077 90.3305C116.077 90.3305 115.83 90.3305 115.747 90.3305C114.266 91.9736 112.651 93.4859 110.921 94.8512C110.261 95.316 109.189 95.6962 108.735 95.0625C108.652 94.8995 108.608 94.7183 108.608 94.5344C108.608 94.3504 108.652 94.1693 108.735 94.0062C109.312 92.5275 118.387 78.416 118.841 77.571C119.295 76.726 118.841 77.3175 118.841 77.3175H115.5M101.145 94.6822C100.928 94.5165 100.755 94.2988 100.64 94.0483C100.525 93.7978 100.472 93.5222 100.485 93.2457C100.637 91.5638 101.318 89.9778 102.424 88.725C103.909 86.866 105.559 85.8942 106.549 86.4012C107.662 86.9505 107.291 88.2602 106.796 89.3165V89.5277C106.796 89.5277 106.796 89.739 107.085 89.7812C106.746 90.5149 106.331 91.209 105.847 91.8515C105.414 92.5069 104.885 93.091 104.28 93.5837C103.605 94.2541 102.737 94.6837 101.805 94.809C101.561 94.8716 101.306 94.8716 101.062 94.809" fill="white"/>
<path d="M67.3613 68.8675H64.7626C59.1938 69.3323 53.9139 72.5433 53.8726 77.3175C53.8716 77.8943 53.9859 78.4653 54.2085 78.9951C54.4311 79.525 54.7573 80.0025 55.1669 80.3984C55.5766 80.7942 56.061 81.0999 56.5904 81.2967C57.1198 81.4935 57.6829 81.5771 58.2451 81.5425C59.7975 81.371 61.2748 80.7689 62.5178 79.8011C63.7608 78.8332 64.7223 77.5363 65.2988 76.05C65.7938 74.8248 64.8451 74.3178 64.4326 75.036C63.6475 76.2551 62.5674 77.2449 61.2976 77.909C59.8126 78.6273 58.2451 78.4583 57.7914 77.233C57.1314 75.5008 58.5339 73.008 61.9164 71.6983C66.5304 70.4868 71.3799 70.5891 75.9413 71.994C75.9413 71.994 76.2713 71.994 75.9413 72.2475C74.8928 72.7731 73.9095 73.4256 73.0126 74.191C71.9277 75.1017 70.9203 76.1053 70.0013 77.1908C69.0938 78.3315 68.4338 79.3455 67.5676 80.4863C67.4882 80.5191 67.3995 80.5191 67.3201 80.4863C65.1939 80.6538 63.1336 81.3187 61.2976 82.4298C61.1144 82.5443 60.9792 82.7243 60.9183 82.9351C60.8573 83.1458 60.8749 83.3723 60.9676 83.5705C61.0333 83.6435 61.113 83.7017 61.2017 83.7416C61.2905 83.7814 61.3863 83.802 61.4832 83.802C61.5801 83.802 61.676 83.7814 61.7647 83.7416C61.8535 83.7017 61.9332 83.6435 61.9988 83.5705C63.075 82.7171 64.3917 82.2428 65.7526 82.2185C64.4871 84.1061 63.1095 85.9122 61.6276 87.6265C60.8691 88.523 60.0562 89.3697 59.1939 90.1615C55.6876 93.4993 51.8926 93.457 50.5314 91.3445C50.1993 90.7918 50.0235 90.1556 50.0235 89.5066C50.0235 88.8577 50.1993 88.2215 50.5314 87.6688C51.2493 86.3975 52.3285 85.3806 53.6251 84.7535C53.7189 84.6828 53.7952 84.5906 53.8477 84.4842C53.9003 84.3777 53.9277 84.2602 53.9277 84.1409C53.9277 84.0216 53.9003 83.904 53.8477 83.7976C53.7952 83.6912 53.7189 83.5989 53.6251 83.5283C53.4373 83.372 53.216 83.2637 52.9793 83.2123C52.7426 83.1608 52.4974 83.1678 52.2639 83.2325C50.6254 83.6443 49.1714 84.6123 48.1389 85.9788C46.991 87.508 46.4463 89.4232 46.6126 91.3445C46.639 92.201 46.8315 93.0435 47.1787 93.823C47.5259 94.6026 48.021 95.3037 48.6351 95.8856C49.2492 96.4674 49.9702 96.9184 50.756 97.2123C51.5419 97.5062 52.3769 97.6371 53.2126 97.5975C54.8047 97.5488 56.3674 97.1457 57.7921 96.416C59.2168 95.6864 60.4693 94.6479 61.4626 93.3725C64.4813 89.8652 67.11 86.0251 69.3001 81.9228C69.3001 81.9228 69.3001 81.7115 69.7951 81.6693C71.3214 81.458 73.5489 81.2468 74.9926 81.1623H75.4876C75.8854 81.6247 76.3603 82.0109 76.8901 82.303C77.0516 82.3523 77.2236 82.3523 77.3851 82.303C77.4801 82.2974 77.573 82.272 77.658 82.2284C77.7431 82.1848 77.8187 82.124 77.8801 82.0495C77.9371 81.9698 77.9678 81.8736 77.9678 81.7749C77.9678 81.6761 77.9371 81.5799 77.8801 81.5003C77.8801 81.5003 76.8076 80.782 76.7664 80.5708C77.6132 80.3114 78.3251 79.7189 78.7463 78.923C79.0199 78.5031 79.1409 77.9982 79.0881 77.4963C79.0353 76.9944 78.8122 76.5274 78.4576 76.1768C78.0422 75.8815 77.5355 75.7529 77.0336 75.8152C76.5317 75.8775 76.0696 76.1264 75.7351 76.5148C75.3424 76.8855 75.0434 77.3483 74.8638 77.8634C74.6841 78.3785 74.6293 78.9306 74.7039 79.4723C74.7039 79.4723 74.7038 79.7258 74.4976 79.7258C73.1776 79.7258 71.8988 79.7258 70.3726 79.937C72.1388 77.1269 74.4567 74.724 77.1788 72.8813C77.1788 72.8813 77.1788 72.501 77.1788 72.2475C81.9454 73.8365 86.8714 74.8711 91.8638 75.3318C93.96 75.4058 96.0378 74.9102 97.8863 73.8953C99.5776 72.9658 100.279 72.0785 100.32 71.1913C100.339 71.0587 100.325 70.9235 100.28 70.7979C100.234 70.6722 100.159 70.5602 100.061 70.472C99.9621 70.3838 99.8438 70.3223 99.7162 70.2929C99.5886 70.2636 99.4559 70.2674 99.3301 70.304C94.3566 71.4135 89.229 71.5996 84.1913 70.8533C78.509 69.7387 72.764 68.9908 66.9901 68.614M75.8176 79.1343C75.7717 78.7952 75.8121 78.4498 75.935 78.1315C76.0579 77.8131 76.259 77.5328 76.5188 77.3175C76.8076 77.064 77.2201 76.9795 77.4263 77.3175C77.7151 77.571 77.4263 78.1625 77.4263 78.5428C77.1299 79.0068 76.6731 79.3388 76.1476 79.4723C76.1476 79.4723 76.1476 79.4723 76.1476 79.261" fill="white"/>
</svg>
