<svg width="71" height="71" viewBox="0 0 71 71" fill="none" xmlns="http://www.w3.org/2000/svg">
<path d="M32.5417 44.3751H38.4583C40.0275 44.3751 41.5325 43.7517 42.642 42.6421C43.7516 41.5325 44.375 40.0276 44.375 38.4584C44.375 36.8892 43.7516 35.3843 42.642 34.2747C41.5325 33.1651 40.0275 32.5417 38.4583 32.5417H29.5833C27.8083 32.5417 26.3292 33.1334 25.4417 34.3167L8.875 50.2917" stroke="#EAB308" stroke-width="2.5" stroke-linecap="round" stroke-linejoin="round"/>
<path d="M20.7083 62.1251L25.4416 57.9834C26.3291 56.8001 27.8083 56.2084 29.5833 56.2084H41.4166C44.6708 56.2084 47.6291 55.0251 49.6999 52.6584L63.3082 39.6417C64.4498 38.5629 65.1161 37.0748 65.1605 35.5047C65.2049 33.9346 64.6237 32.4112 63.5449 31.2697C62.4661 30.1281 60.978 29.4618 59.4079 29.4174C57.8378 29.373 56.3144 29.9542 55.1728 31.033L42.7478 42.5705" stroke="#EAB308" stroke-width="2.5" stroke-linecap="round" stroke-linejoin="round"/>
<path d="M5.91675 47.3333L23.6667 65.0833" stroke="#EAB308" stroke-width="2.5" stroke-linecap="round" stroke-linejoin="round"/>
<path d="M47.3333 35.2042C52.0715 35.2042 55.9125 31.3632 55.9125 26.6251C55.9125 21.8869 52.0715 18.0459 47.3333 18.0459C42.5952 18.0459 38.7542 21.8869 38.7542 26.6251C38.7542 31.3632 42.5952 35.2042 47.3333 35.2042Z" stroke="#EAB308" stroke-width="2.5" stroke-linecap="round" stroke-linejoin="round"/>
<path d="M17.75 23.6667C22.6515 23.6667 26.625 19.6933 26.625 14.7917C26.625 9.89022 22.6515 5.91675 17.75 5.91675C12.8485 5.91675 8.875 9.89022 8.875 14.7917C8.875 19.6933 12.8485 23.6667 17.75 23.6667Z" stroke="#EAB308" stroke-width="2.5" stroke-linecap="round" stroke-linejoin="round"/>
</svg>
