<svg width="145" height="150" viewBox="0 0 145 150" fill="none" xmlns="http://www.w3.org/2000/svg">
<path d="M72.5 103.8C102.515 103.8 126.875 90.9 126.875 75C126.875 59.1 102.515 46.2 72.5 46.2C42.485 46.2 18.125 59.1 18.125 75C18.125 90.9 42.485 103.8 72.5 103.8ZM82.7225 89.6625C81.7314 93.1861 79.5926 96.2467 76.6687 98.325C75.5282 98.8651 74.297 99.1708 73.0437 99.2249H72.5C63.3003 99.2922 54.1407 97.9656 45.3125 95.2875H45.0225C44.2975 95.0625 43.935 94.6875 43.935 94.2749C43.9425 94.1018 43.9851 93.9322 44.0601 93.7772C44.135 93.6221 44.2406 93.4851 44.37 93.375L44.8775 92.925C50.1651 88.7464 56.0634 85.4677 62.35 83.2125C66.4918 81.3695 70.7712 79.8771 75.1462 78.75C77.9012 78.15 88.1237 76.5 82.7225 89.5125M110.2 60.4874C110.292 60.3044 110.427 60.1473 110.591 60.0297C110.755 59.9121 110.944 59.8376 111.143 59.8125C111.544 59.8238 111.934 59.954 112.266 60.1874C118.646 64.275 122.416 69.3374 122.416 74.8499C122.416 84.7874 110.091 93.2999 92.4375 97.0499C91.3138 97.2749 90.5525 97.2749 90.2988 97.0499C90.045 96.8249 90.045 96.5625 90.2988 96.1499C90.433 95.9088 90.5909 95.6826 90.77 95.4749C98.5372 85.0628 104.925 73.6242 109.765 61.4625L110.2 60.5625M62.4225 60.1874C63.4136 56.6638 65.5524 53.6032 68.4762 51.525C69.6132 50.9792 70.848 50.6854 72.1012 50.6625H72.5C81.7016 50.5525 90.8705 51.8154 99.7237 54.4125H100.014C100.739 54.6375 101.101 54.975 101.101 55.425C101.087 55.6005 101.038 55.7711 100.957 55.926C100.876 56.0809 100.764 56.2168 100.63 56.325L100.159 56.775C94.8602 60.9264 88.9642 64.1912 82.6862 66.4499C78.5906 68.3737 74.3618 69.9781 70.035 71.25C67.2437 71.85 57.0212 73.4625 62.4225 60.45M52.5625 52.95C53.6862 52.725 54.4475 52.725 54.7375 52.95C54.8264 53.082 54.874 53.239 54.874 53.4C54.874 53.5609 54.8264 53.7179 54.7375 53.85C54.6099 54.0841 54.4513 54.2987 54.2663 54.4875C46.4991 64.8996 40.111 76.3382 35.2712 88.5C35.2712 88.875 34.945 89.2125 34.8362 89.4375C34.7565 89.6197 34.6297 89.7756 34.4698 89.888C34.3099 90.0005 34.1231 90.0652 33.93 90.075C33.4552 90.1042 32.9879 89.943 32.625 89.625C26.245 85.575 22.475 80.475 22.475 75C22.475 65.0625 34.8 56.5125 52.4538 52.8" fill="#171717"/>
</svg>
