<svg width="45" height="45" viewBox="0 0 30 30" xmlns="http://www.w3.org/2000/svg">
<path d="M7.72495 5.6696C7.14995 5.98671 6.37495 7.00146 5.93745 8.00352C3.82495 12.8616 4.13745 21.5504 6.56245 25.2669C7.07495 26.0407 7.96245 26.7256 8.46245 26.7256C9.24995 26.7256 10.3125 25.7363 10.975 24.379C12.0625 22.1593 12.6875 17.631 12.4 14.0667C11.925 8.2699 9.83745 4.50264 7.72495 5.6696ZM9.09995 9.22122C10.075 10.1472 10.6125 13.2675 10.45 17.149C10.3375 20.1044 9.93745 21.9183 9.22495 22.7428C8.38745 23.7068 7.47495 22.9584 6.94995 20.8655C6.28745 18.2271 6.41245 12.8616 7.19995 10.4516C7.61245 9.18317 8.47495 8.62506 9.09995 9.22122Z"/>
<path d="M8.1251 10.515C8.0001 10.8194 7.8251 11.5171 7.7376 12.0752C7.5126 13.4324 7.5126 18.7091 7.7376 20.0664C7.9126 21.1572 8.2751 22.1593 8.5001 22.1593C8.7251 22.1593 9.0876 21.1572 9.2626 20.0664C9.4876 18.7091 9.4876 13.4324 9.2626 12.0752C9.0876 10.9843 8.7251 9.98228 8.5001 9.98228C8.4251 9.98228 8.2626 10.2233 8.1251 10.515Z"/>
<path d="M11.1877 6.20233C11.4877 6.64629 12.0127 7.28051 12.3627 7.63567L13.0002 8.2572L13.6627 7.59762C14.0252 7.22977 14.4002 6.93803 14.5002 6.93803C14.6002 6.93803 14.9752 7.22977 15.3377 7.59762L16.0002 8.2572L16.6627 7.59762C17.0252 7.22977 17.4002 6.93803 17.5002 6.93803C17.6002 6.93803 17.9752 7.24245 18.3377 7.59762L19.0002 8.2572L19.4002 7.86399C19.7752 7.48346 19.7877 7.43272 19.6252 7.12829C19.3127 6.53213 18.5877 5.77107 18.1627 5.59349C17.8502 5.45396 16.9252 5.4159 14.2002 5.4159H10.6377L11.1877 6.20233Z"/>
<path d="M13.8127 8.85339C13.3377 9.3354 13.1127 9.47493 12.9002 9.43687C12.7002 9.39882 12.6252 9.43687 12.6752 9.55103C12.7127 9.63982 12.8127 10.0584 12.8877 10.477C13.0252 11.1112 13.1502 11.3395 13.5877 11.7835L14.1252 12.3162L14.7877 11.6566C15.1502 11.2888 15.5502 10.997 15.6877 10.997C15.8252 10.997 16.2252 11.2888 16.5877 11.6566L17.2377 12.3035L17.9377 11.6566C18.3252 11.2888 18.7252 10.997 18.8377 10.997C18.9377 10.997 19.3377 11.2761 19.7127 11.6313L20.4127 12.2528L20.7752 11.9991C20.9627 11.8596 21.1252 11.6947 21.1252 11.644C21.1252 11.4537 20.5252 9.1705 20.3877 8.78997L20.2377 8.42212L19.7127 8.94218C19.4127 9.23392 19.1002 9.47493 19.0002 9.47493C18.9002 9.47493 18.5252 9.18318 18.1627 8.81534L17.5002 8.15575L16.8377 8.81534C16.4752 9.18318 16.1002 9.47493 15.9877 9.47493C15.8877 9.47493 15.5252 9.18318 15.1877 8.84071C14.8502 8.48554 14.5377 8.20649 14.5002 8.20649C14.4627 8.20649 14.1502 8.49823 13.8127 8.85339Z" />
<path d="M14.9373 12.8997C14.2748 13.5847 14.0873 13.6481 13.6498 13.331L13.3623 13.128L13.4498 14.4472C13.5123 15.5888 13.5623 15.7917 13.8248 16.0708L14.1248 16.3752L14.7873 15.7156C15.1498 15.3478 15.5498 15.056 15.6873 15.056C15.8248 15.056 16.2248 15.3478 16.5873 15.7156L17.2373 16.3625L17.9373 15.7156C18.7123 14.9926 18.9623 14.9165 19.3248 15.3224C19.4498 15.4746 19.7748 15.7537 20.0248 15.9693L20.4873 16.3372L20.9998 15.8552L21.5248 15.3858L21.4373 14.2442C21.3873 13.61 21.3248 13.0646 21.2998 13.0392C21.2873 13.0139 21.0998 13.1153 20.8998 13.2675C20.6873 13.4198 20.4498 13.5339 20.3498 13.5339C20.2498 13.5339 19.8998 13.2422 19.5623 12.8997C19.2248 12.5445 18.8998 12.2655 18.8373 12.2655C18.7873 12.2655 18.4373 12.5445 18.0748 12.8997C17.7123 13.2422 17.3373 13.5339 17.2623 13.5339C17.1748 13.5339 16.7873 13.2422 16.3998 12.8997C16.0123 12.5445 15.6623 12.2655 15.6248 12.2655C15.5873 12.2655 15.2748 12.5445 14.9373 12.8997Z" />
<path d="M14.9125 16.9841C14.2875 17.6183 14.2375 17.6436 13.8875 17.5041L13.5125 17.3646L13.4375 18.0876C13.4 18.4808 13.35 18.9755 13.325 19.1911C13.275 19.5209 13.35 19.6731 13.7 20.0156L14.125 20.4342L14.7875 19.7746C15.15 19.4068 15.55 19.115 15.6875 19.115C15.825 19.115 16.225 19.4068 16.5875 19.7746L17.2375 20.4215L17.9375 19.7746C18.325 19.4068 18.725 19.115 18.8375 19.115C18.9375 19.115 19.3375 19.3941 19.7125 19.7366L20.4125 20.3708L20.8125 20.0537C21.25 19.7112 21.2875 19.597 21.45 17.7197L21.5375 16.7684L21.075 17.187C20.825 17.4026 20.525 17.5929 20.4125 17.5929C20.3 17.5929 19.9125 17.3012 19.5375 16.946L18.875 16.2991L18.25 16.8318C17.9 17.1236 17.6 17.4153 17.55 17.4787C17.4125 17.7197 17.05 17.5675 16.3625 16.9587C15.9625 16.6035 15.625 16.3245 15.6 16.3245C15.575 16.3245 15.2625 16.6289 14.9125 16.9841Z" />
<path d="M14.9374 21.0177C14.5999 21.3602 14.2249 21.6519 14.1124 21.6519C13.9874 21.6519 13.7249 21.5124 13.5249 21.3348C13.0999 20.9796 12.9999 20.9416 12.9999 21.1699C12.9999 21.2587 12.8499 21.8675 12.6749 22.5144L12.3374 23.7068L12.7374 24.1L13.1249 24.4932L13.7874 23.8336C14.1499 23.4784 14.5499 23.174 14.6874 23.174C14.8249 23.174 15.2249 23.4658 15.5874 23.8336L16.2374 24.4805L16.9374 23.8336C17.3249 23.4658 17.7249 23.174 17.8374 23.174C17.9374 23.174 18.3374 23.4531 18.7124 23.8082L19.4124 24.4298L19.7749 24.1761C20.2124 23.859 20.2749 23.7321 20.6624 22.4637L20.9749 21.4363L20.6124 21.5758C20.2749 21.7026 20.2124 21.6646 19.5624 21.0177L18.8874 20.3327L18.1374 20.9923C17.7249 21.3602 17.3249 21.6519 17.2374 21.6519C17.1499 21.6519 16.7624 21.3602 16.3624 21.0177C15.9624 20.6625 15.6249 20.3835 15.5999 20.3835C15.5749 20.3835 15.2749 20.6625 14.9374 21.0177Z" />
<path d="M13.9374 25.0767C13.5999 25.4192 13.2249 25.7109 13.0999 25.7109C12.9749 25.7109 12.6499 25.5079 12.3749 25.2543C12.0999 25.0006 11.8499 24.8103 11.8249 24.8357C11.7999 24.861 11.6624 25.1147 11.5124 25.3938C11.3749 25.6728 11.0999 26.0914 10.9249 26.3071L10.5874 26.7256H14.1374C17.3124 26.7256 17.7374 26.7003 18.1874 26.4846C18.4624 26.3578 18.7999 26.1295 18.9249 25.9773L19.1749 25.6982L18.5624 25.0767C18.2249 24.7215 17.8999 24.4425 17.8374 24.4425C17.7874 24.4425 17.4374 24.7215 17.0749 25.0767C16.7124 25.4192 16.3374 25.7109 16.2624 25.7109C16.1749 25.7109 15.7874 25.4192 15.3999 25.0767C15.0124 24.7215 14.6624 24.4425 14.6249 24.4425C14.5874 24.4425 14.2749 24.7215 13.9374 25.0767Z" />
</svg>
